<svg width="288" height="137" viewBox="0 0 288 137" fill="none" xmlns="http://www.w3.org/2000/svg">
<path d="M163.161 87.5518V116.131H219.118C219.118 105.224 227.96 96.3822 238.867 96.3822C249.774 96.3822 258.616 105.224 258.616 116.131H283.233C285.644 116.131 287.6 114.176 287.6 111.765V102.358L276.763 98.9982C271.747 97.443 268.329 92.803 268.329 87.5518H163.161Z" fill="#F3F5F7"/>
<path d="M177.58 30.8463V53.4959C177.58 55.3519 179.084 56.8575 180.94 56.8575H222.272C225.244 56.8575 226.753 53.2799 224.678 51.1503L202.601 28.5007C201.968 27.8511 201.1 27.4863 200.193 27.4863H180.94C179.084 27.4863 177.58 28.9903 177.58 30.8463Z" fill="#F3F5F7"/>
<path d="M163.161 14.0371V87.5523H268.329H284.481C282.99 85.1555 280.997 83.0595 278.595 81.4227L238.867 54.3779L198.525 14.0371H163.161ZM177.581 53.4963V30.8467C177.581 28.9907 179.085 27.4867 180.941 27.4867H200.193C201.101 27.4867 201.968 27.8515 202.601 28.5011L224.678 51.1507C226.753 53.2803 225.245 56.8579 222.272 56.8579H180.941C179.085 56.8579 177.581 55.3523 177.581 53.4963Z" fill="#F3F5F7"/>
<path d="M108.156 14.0371H163.161V87.5523H108.156V14.0371Z" fill="#F3F5F7"/>
<path d="M1.31641 13.2146V14.037H108.156H163.161H198.524L193.627 9.1378C188.544 4.0562 181.651 1.2002 174.464 1.2002H13.3308C6.69562 1.2002 1.31641 6.5794 1.31641 13.2146Z" fill="#F3F5F7"/>
<path d="M1.31625 14.0371V67.5587L4.36424 68.7075C9.95144 70.8115 14.065 75.6419 15.2506 81.4931L16.4795 87.5523H108.156V14.0371H1.31625Z" fill="#F3F5F7"/>
<path d="M1.31625 87.5518V108.003C1.31625 112.491 4.95464 116.131 9.44424 116.131H32.9803C32.9803 105.224 41.8218 96.3822 52.729 96.3822C63.6346 96.3822 72.4762 105.224 72.4762 116.131H108.156V87.5518H16.4795H1.31625Z" fill="#F3F5F7"/>
<path d="M108.156 87.5518H163.161V116.131H108.156V87.5518Z" fill="#F3F5F7"/>
<path d="M1.31628 67.5586V87.5522H16.4795L15.2507 81.493C14.0651 75.6418 9.95147 70.8114 4.36427 68.7074L1.31628 67.5586Z" fill="#F1842E"/>
<path d="M52.7294 96.3828C41.8222 96.3828 32.9806 105.224 32.9806 116.132C32.9806 127.039 41.8222 135.88 52.7294 135.88C63.635 135.88 72.4766 127.039 72.4766 116.132C72.4766 105.224 63.635 96.3828 52.7294 96.3828ZM44.1037 116.132C44.1037 111.367 47.9646 107.506 52.7294 107.506C57.4926 107.506 61.355 111.367 61.355 116.132C61.355 120.895 57.4926 124.757 52.7294 124.757C47.9646 124.757 44.1037 120.895 44.1037 116.132Z" fill="#203156"/>
<path d="M238.867 96.3828C227.96 96.3828 219.118 105.224 219.118 116.132C219.118 127.039 227.96 135.88 238.867 135.88C249.774 135.88 258.616 127.039 258.616 116.132C258.616 105.224 249.774 96.3828 238.867 96.3828ZM230.241 116.132C230.241 111.367 234.102 107.506 238.867 107.506C243.63 107.506 247.493 111.367 247.493 116.132C247.493 120.895 243.63 124.757 238.867 124.757C234.102 124.757 230.241 120.895 230.241 116.132Z" fill="#203156"/>
<path d="M284.481 87.5518H268.329C268.329 92.803 271.747 97.443 276.763 98.9982L287.6 102.358V98.4446C287.6 94.5374 286.491 90.7742 284.481 87.5518Z" fill="#F1842E"/>
<path d="M238.867 136.28C249.977 136.28 259.016 127.242 259.016 116.131C259.016 105.021 249.977 95.9824 238.867 95.9824C227.756 95.9824 218.718 105.021 218.718 116.131C218.718 127.242 227.756 136.28 238.867 136.28ZM238.867 96.7824C249.536 96.7824 258.216 105.462 258.216 116.131C258.216 126.8 249.536 135.48 238.867 135.48C228.198 135.48 219.518 126.8 219.518 116.131C219.518 105.462 228.198 96.7824 238.867 96.7824Z" fill="#203156"/>
<path d="M238.866 125.157C243.842 125.157 247.892 121.109 247.892 116.131C247.892 111.153 243.842 107.105 238.866 107.105C233.89 107.105 229.841 111.155 229.841 116.131C229.841 121.107 233.89 125.157 238.866 125.157ZM238.866 107.905C243.402 107.905 247.092 111.595 247.092 116.131C247.092 120.667 243.402 124.357 238.866 124.357C234.33 124.357 230.641 120.667 230.641 116.131C230.641 111.595 234.33 107.905 238.866 107.905Z" fill="#203156"/>
<path d="M52.7293 136.28C63.8381 136.28 72.8765 127.242 72.8765 116.131C72.8765 105.021 63.8381 95.9824 52.7293 95.9824C41.6188 95.9824 32.5805 105.021 32.5805 116.131C32.5805 127.242 41.6188 136.28 52.7293 136.28ZM52.7293 96.7824C63.3981 96.7824 72.0765 105.462 72.0765 116.131C72.0765 126.8 63.3981 135.48 52.7293 135.48C42.0604 135.48 33.3805 126.8 33.3805 116.131C33.3805 105.462 42.0604 96.7824 52.7293 96.7824Z" fill="#203156"/>
<path d="M52.7293 125.157C57.7053 125.157 61.7549 121.109 61.7549 116.131C61.7549 111.153 57.7069 107.105 52.7293 107.105C47.7517 107.105 43.7037 111.155 43.7037 116.131C43.7037 121.107 47.7533 125.157 52.7293 125.157ZM52.7293 107.905C57.2653 107.905 60.9549 111.595 60.9549 116.131C60.9549 120.667 57.2653 124.357 52.7293 124.357C48.1933 124.357 44.5037 120.667 44.5037 116.131C44.5037 111.595 48.1933 107.905 52.7293 107.905Z" fill="#203156"/>
<path d="M72.4761 115.731H219.118V116.531H72.4761V115.731Z" fill="#203156"/>
<path d="M9.44431 116.531H32.9803V115.731H9.44431C5.1835 115.731 1.71631 112.264 1.71631 108.003V13.2142C1.71631 6.80941 6.9259 1.5998 13.3307 1.5998H174.464C181.595 1.5998 188.299 4.37741 193.344 9.42061L198.241 14.3198L238.611 54.6878L238.641 54.7086L278.369 81.7534C280.71 83.3486 282.652 85.371 284.14 87.763C286.14 90.971 287.198 94.6638 287.198 98.4446V111.765C287.198 113.952 285.419 115.731 283.232 115.731H258.614V116.531H283.233C285.862 116.531 288 114.393 288 111.765V98.4446C288 94.515 286.9 90.675 284.82 87.3406C283.273 84.8542 281.254 82.7518 278.82 81.0926L239.123 54.0686L198.808 13.7534L193.91 8.85421C188.715 3.66061 181.808 0.799805 174.464 0.799805H13.3307C6.4859 0.799805 0.916321 6.36941 0.916321 13.2142V108.003C0.916321 112.705 4.74191 116.531 9.44431 116.531Z" fill="#203156"/>
<path d="M1.31641 13.6367H198.524V14.4367H1.31641V13.6367Z" fill="#203156"/>
<path d="M1.31638 87.1514H284.56V87.9514H1.31638V87.1514Z" fill="#203156"/>
<path d="M287.481 102.741L287.718 101.976L276.881 98.6158C272.006 97.1038 268.729 92.6574 268.729 87.5518H267.929C267.929 93.011 271.431 97.7646 276.644 99.3806L287.481 102.741Z" fill="#203156"/>
<path d="M162.761 14.0361H163.561V116.131H162.761V14.0361Z" fill="#203156"/>
<path d="M107.756 14.0361H108.556V116.131H107.756V14.0361Z" fill="#203156"/>
<path d="M180.941 57.2575H222.272C223.811 57.2575 225.139 56.3759 225.736 54.9583C226.334 53.5391 226.038 51.9743 224.965 50.8719L202.888 28.2223C202.184 27.5007 201.201 27.0879 200.193 27.0879H180.941C178.867 27.0879 177.181 28.7743 177.181 30.8479V53.4975C177.181 55.5695 178.867 57.2575 180.941 57.2575ZM200.193 27.8863C200.989 27.8863 201.761 28.2127 202.315 28.7807L224.392 51.4303C225.238 52.2975 225.47 53.5311 225 54.6479C224.529 55.7647 223.483 56.4575 222.272 56.4575H180.941C179.309 56.4575 177.981 55.1295 177.981 53.4959V30.8463C177.981 29.2143 179.309 27.8863 180.941 27.8863H200.193Z" fill="#203156"/>
<path d="M16.0876 87.6319L16.8716 87.4735L15.6428 81.4143C14.422 75.3903 10.2588 70.5007 4.50516 68.3343L1.45717 67.1855L1.17557 67.9343L4.22356 69.0831C9.71797 71.1519 13.694 75.8207 14.8588 81.5743L16.0876 87.6319Z" fill="#203156"/>
<path d="M238.867 118.537C237.538 118.537 236.46 117.46 236.46 116.131C236.46 114.802 237.538 113.725 238.867 113.725C240.196 113.725 241.273 114.802 241.273 116.131C241.273 117.46 240.196 118.537 238.867 118.537Z" fill="#203156"/>
<path d="M52.7293 118.537C51.4003 118.537 50.3229 117.46 50.3229 116.131C50.3229 114.802 51.4003 113.725 52.7293 113.725C54.0584 113.725 55.1357 114.802 55.1357 116.131C55.1357 117.46 54.0584 118.537 52.7293 118.537Z" fill="#203156"/>
</svg>
