<svg width="272" height="190" viewBox="0 0 272 190" fill="none" xmlns="http://www.w3.org/2000/svg">
<path d="M224.648 128.082C241.438 128.082 255.051 141.693 255.051 158.487C255.051 175.277 241.44 188.89 224.648 188.89C207.858 188.89 194.243 175.279 194.243 158.487C194.243 148.047 199.506 138.837 207.518 133.362L212.082 142.325C207.269 146.071 204.176 151.917 204.176 158.487C204.176 169.792 213.341 178.959 224.648 178.959C235.955 178.959 245.12 169.792 245.12 158.487C245.12 147.18 235.955 138.015 224.648 138.015C223.582 138.015 222.536 138.096 221.514 138.252L217.499 128.928C219.792 128.375 222.186 128.082 224.648 128.082Z" fill="#203156"/>
<path d="M224.648 138.015C235.955 138.015 245.12 147.179 245.12 158.487C245.12 169.792 235.955 178.959 224.648 178.959C213.341 178.959 204.176 169.792 204.176 158.487C204.176 151.917 207.27 146.071 212.081 142.325L216.155 150.33C214.123 152.445 212.873 155.319 212.873 158.485C212.873 164.986 218.145 170.256 224.646 170.256C231.147 170.256 236.419 164.986 236.419 158.485C236.419 152.154 231.424 146.992 225.161 146.723L221.512 138.25C222.536 138.096 223.582 138.015 224.648 138.015Z" fill="#F3F5F7"/>
<path d="M237.499 109.09C237.07 110.672 235.643 111.678 234.112 111.678C233.658 111.678 233.195 111.589 232.746 111.4C218.888 105.552 208.917 106.76 201.79 110.902L188.042 84.288C190.928 82.8928 194.4 84.0288 195.906 86.8592L201.193 96.8048C202.488 99.2368 205.184 100.581 207.906 100.146L209.365 99.9136C219.672 98.2704 230.142 101.685 237.499 109.09Z" fill="#F3F5F7"/>
<path d="M225.163 146.725C231.425 146.993 236.421 152.155 236.421 158.486C236.421 164.987 231.149 170.257 224.648 170.257C218.147 170.257 212.875 164.987 212.875 158.486C212.875 155.32 214.125 152.446 216.157 150.331L220.264 158.398C221.069 159.979 222.67 160.891 224.333 160.891C225.009 160.891 225.697 160.739 226.345 160.421C228.525 159.349 229.483 156.753 228.521 154.521L225.163 146.725Z" fill="#F3F5F7"/>
<path d="M176.109 71.6606C175.808 71.067 175.202 70.7166 174.567 70.7182L174.565 70.6062C175.072 70.027 176.375 66.0142 174.867 63.8974C176.504 63.7838 177.965 64.4142 179.234 66.8078L188.042 84.2846L201.791 110.899L209.981 126.752L210.677 126.409C213.251 125.142 216.363 126.289 217.499 128.925L221.514 138.248L225.163 146.721L228.522 154.518C229.483 156.75 228.525 159.344 226.346 160.417C225.698 160.736 225.01 160.888 224.333 160.888C222.671 160.888 221.069 159.976 220.264 158.395L216.157 150.328L212.083 142.323L207.52 133.36L197.616 113.907L192.525 103.904H192.523L186.328 91.7341L176.109 71.6606Z" fill="#F3F5F7"/>
<path d="M192.523 103.905H192.525L197.616 113.909C191.174 119.533 187.798 127.557 186.173 132.776C185.688 134.331 184.73 135.641 183.485 136.563C182.24 137.483 180.707 138.016 179.078 138.016L178.493 137.403L164.394 122.624L169.115 105.627C169.392 104.683 169.571 103.737 169.659 102.8L192.523 103.905Z" fill="#F3F5F7"/>
<path d="M163.933 140.435C163.93 140.429 163.928 140.422 163.925 140.416C163.879 140.317 163.829 140.218 163.779 140.118C163.904 140.114 164.032 140.11 164.159 140.11C169.029 140.11 172.976 144.058 172.976 148.925C172.976 153.795 169.029 157.742 164.159 157.742C162.152 157.742 160.304 157.074 158.824 155.946C162.541 153.947 165.069 150.021 165.069 145.504C165.069 143.872 164.739 142.318 164.143 140.904C164.075 140.744 164.003 140.587 163.933 140.435Z" fill="#203156"/>
<path d="M166.417 92.1315C169.48 89.9571 173.304 89.1395 176.987 89.8755L186.328 91.7363L192.523 103.906L169.659 102.799C170.027 98.8579 168.779 95.0563 166.417 92.1315Z" fill="#F3F5F7"/>
<path d="M164.078 64.8252L166.953 66.3068C166.576 66.1356 166.165 66.0252 165.729 65.982C163.582 65.7692 161.673 67.3388 161.461 69.4828C161.382 70.2844 161.552 71.054 161.907 71.7116C148.795 71.046 139.067 68.6524 131.857 65.5436L132.496 64.39L138.934 56.4668C144.555 59.4476 152.024 62.3084 161.896 64.3868C161.899 64.3884 161.902 64.39 161.907 64.39C162.323 64.4764 162.742 64.5644 163.168 64.6476H163.169C163.469 64.7068 163.773 64.766 164.078 64.8252Z" fill="#F3F5F7"/>
<path d="M164.141 140.902C164.737 142.316 165.067 143.87 165.067 145.502C165.067 150.019 162.539 153.945 158.822 155.944C158.52 156.107 158.209 156.257 157.891 156.395L157.779 156.412C157.707 155.955 157.509 155.507 157.174 155.123L151.753 148.891L151.758 148.867H151.76L159.544 151.267C161.208 151.78 162.889 150.534 162.889 148.796C162.889 148.79 162.889 148.784 162.889 148.777C162.877 147.044 161.197 145.816 159.541 146.326L151.797 148.715L153.63 141.398L153.95 140.123L159.48 141.398L160.749 136.542C162.07 137.58 163.157 138.9 163.92 140.416C163.923 140.422 163.925 140.428 163.928 140.435C164.003 140.587 164.075 140.744 164.141 140.902Z" fill="#F3F5F7"/>
<path d="M156.904 158.785C157.6 158.196 157.917 157.284 157.779 156.412L157.891 156.395C158.209 156.257 158.52 156.107 158.822 155.944C160.302 157.072 162.152 157.74 164.157 157.74C169.027 157.74 172.974 153.793 172.974 148.923C172.974 144.054 169.027 140.108 164.157 140.108C164.03 140.108 163.902 140.112 163.777 140.116C163.041 138.68 162.022 137.412 160.793 136.388L164.393 122.622L178.493 137.401L178.31 138.014L171.013 162.411L158.401 161.652L156.904 158.785Z" fill="#F3F5F7"/>
<path d="M153.634 141.397L135.155 139.97L135.917 137.435L136.331 136.058L153.954 140.123L153.634 141.397Z" fill="#203156"/>
<path d="M152.658 157.124L151.687 148.911L151.747 148.927L151.755 148.892L157.176 155.124C157.511 155.508 157.709 155.956 157.781 156.413C157.919 157.285 157.602 158.197 156.906 158.786C156.727 158.941 156.522 159.071 156.291 159.176C155.941 159.335 155.581 159.408 155.227 159.408C153.97 159.408 152.818 158.479 152.658 157.124Z" fill="#F3F5F7"/>
<path d="M143.64 107.785L141.37 115.705L130.53 113.952L127.991 113.542L127.986 113.54H127.983L101.229 102.481V99.9131V97.2939L106.819 97.4844C110.431 101.961 115.763 105.041 121.939 105.649L143.64 107.785Z" fill="#203156"/>
<path d="M137.368 11.4403C139.377 16.6963 139.277 22.4163 139.059 25.2163L125.934 20.7507C125.203 20.5027 124.741 19.7827 124.814 19.0147C124.819 18.9587 124.822 18.9043 124.822 18.8515C124.822 18.1187 124.337 17.4627 123.621 17.2547L123.166 17.1235C121.587 16.5971 120.581 15.0467 120.744 13.3891C120.925 11.5475 122.478 10.1699 124.291 10.1699C124.408 10.1699 124.526 10.1747 124.645 10.1875L137.368 11.4403Z" fill="#F3F5F7"/>
<path d="M125.934 20.749L139.059 25.2146C138.976 26.3122 138.873 26.9602 138.873 26.9602L135.037 33.5506L128.206 30.9986H128.205L113.147 25.3746V25.373L111.659 24.8178C109.891 22.1362 109.203 17.3186 109.542 13.8753C110.329 5.89295 117.437 0.0593572 125.417 0.846557C132.065 2.37456 135.568 6.72336 137.368 11.4418L124.646 10.189C124.528 10.1762 124.409 10.1714 124.293 10.1714C122.48 10.1714 120.928 11.549 120.745 13.3906C120.582 15.0482 121.589 16.6002 123.168 17.125L123.622 17.2562C124.339 17.4626 124.824 18.1202 124.824 18.853C124.824 18.9074 124.821 18.9601 124.816 19.0161C124.741 19.781 125.203 20.5026 125.934 20.749Z" fill="#F3F5F7"/>
<path d="M138.934 56.4642L132.496 64.3874L137.358 55.5986C137.867 55.8898 138.39 56.1778 138.934 56.4642Z" fill="#203156"/>
<path d="M141.827 160.656L138.609 159.674L130.025 157.053L131.329 152.711L132.947 147.322L133.275 146.231L133.777 144.559L151.685 148.909L152.656 157.122C152.816 158.477 153.968 159.407 155.224 159.407C155.577 159.407 155.937 159.333 156.288 159.175C156.518 159.071 156.723 158.939 156.902 158.784L158.401 161.65L160.931 166.485L141.827 160.656Z" fill="#F3F5F7"/>
<path d="M137.358 55.5997L132.496 64.3885L131.858 65.5421C130.69 65.0397 129.589 64.5149 128.549 63.9789L128.944 63.7037L134.491 53.8525C135.117 54.2621 135.774 54.6701 136.464 55.0797C136.755 55.2541 137.053 55.4269 137.358 55.5997Z" fill="#FBD3B9"/>
<path d="M135.075 52.2557L134.269 53.5341L134.189 53.6557C125.146 47.6669 122.831 42.0237 122.831 42.0237C123.248 42.0781 123.682 42.1245 124.127 42.1645L123.739 40.7549C123.739 40.7549 127.035 46.2733 135.075 52.2557Z" fill="#F1842E"/>
<path d="M134.491 53.8527C134.39 53.7887 134.29 53.7215 134.19 53.6559L134.27 53.5343L135.077 52.2559C135.771 52.7711 136.499 53.2911 137.266 53.8111L136.464 55.0799C135.774 54.6719 135.115 54.2623 134.491 53.8527Z" fill="#FBD3B9"/>
<path d="M135.917 137.435L135.155 139.969L133.779 144.56L133.275 146.23L133.195 146.206L131 140.752L135.806 137.401L135.917 137.435Z" fill="#F3F5F7"/>
<path d="M132.947 147.321L132.874 147.299L123.058 149.897C121.451 144.429 118.35 139.603 114.226 135.888L128.133 133.592L128.144 133.653L131 140.752L133.195 146.206L133.275 146.23L132.947 147.321Z" fill="#F3F5F7"/>
<path d="M132.947 147.322L131.33 152.711L131.296 152.699L124.045 154.619L114.314 157.194L105.613 159.496L95.4081 162.197C94.1585 162.528 92.8689 161.813 92.4881 160.578C92.4145 160.341 92.3809 160.103 92.3809 159.869C92.3809 158.805 93.0913 157.827 94.1761 157.538L105.024 154.669L113.446 152.44L123.058 149.896L132.874 147.298L132.947 147.322Z" fill="#F3F5F7"/>
<path d="M116.165 29.0994C114.989 28.0722 113.971 26.8114 113.147 25.373L128.205 30.997C126.437 31.789 124.521 32.1362 122.563 31.9394C122.525 31.9362 122.488 31.9314 122.449 31.9266C122.302 31.9106 122.152 31.8914 122.001 31.8674C120.022 31.5666 118.211 30.7346 116.653 29.5042C116.489 29.3746 116.326 29.2386 116.165 29.0994Z" fill="#F3F5F7"/>
<path d="M127.982 113.541H127.986L127.99 113.542L130.53 113.952L130.747 114.683L135.99 132.294L128.134 133.592L114.227 135.888C108.84 131.035 101.707 128.082 93.8864 128.082C92.9664 128.082 92.056 128.122 91.1584 128.202L90.3168 122.746L87.896 107.058L127.982 113.541Z" fill="#F3F5F7"/>
<path d="M127.982 113.54L87.896 107.057L76.9472 105.839L70.0384 105.048H55.0288V100.015H87.896V99.9131H101.229V102.481L127.982 113.54Z" fill="#F3F5F7"/>
<path d="M127.565 83.8701L101.999 81.3517C101.999 81.3517 93.7842 61.7421 111.498 37.5293C111.498 37.5293 114.863 40.9981 122.831 42.0237C122.831 42.0237 125.146 47.6669 134.189 53.6557C134.288 53.7213 134.389 53.7885 134.49 53.8525L128.943 63.7037L128.547 63.9789C127.922 63.6573 127.322 63.3293 126.743 62.9981C124.682 72.7085 127.037 81.9965 127.565 83.8701Z" fill="#F1842E"/>
<path d="M123.739 40.7547L124.126 42.1643C123.683 42.1243 123.25 42.0779 122.83 42.0235C114.862 40.9979 111.498 37.5291 111.498 37.5291L113.555 34.2539C113.555 34.2539 113.91 34.5355 114.594 34.9531C115.76 35.6683 117.89 36.7819 120.853 37.5627C121.523 37.7387 122.237 37.8987 122.992 38.0347L123.739 40.7547Z" fill="#BF5117"/>
<path d="M124.046 154.621C124.206 155.887 124.289 157.176 124.289 158.487C124.289 175.277 110.678 188.89 93.8846 188.89C77.0942 188.89 63.4814 175.279 63.4814 158.487C63.4814 142.613 75.643 129.583 91.1566 128.202C92.0558 128.122 92.9662 128.082 93.8846 128.082C101.705 128.082 108.838 131.037 114.225 135.888C118.35 139.602 121.451 144.429 123.057 149.898L113.446 152.442C110.869 144.087 103.085 138.015 93.883 138.015C82.5758 138.015 73.411 147.18 73.411 158.487C73.411 169.792 82.5758 178.959 93.883 178.959C105.19 178.959 114.355 169.792 114.355 158.487C114.355 158.053 114.341 157.623 114.313 157.197L124.046 154.621Z" fill="#203156"/>
<path d="M122.451 31.9278L121.903 34.2558C116.869 33.4318 115.837 30.3294 115.837 30.3294L116.167 29.1006C116.327 29.2398 116.49 29.3758 116.656 29.507C118.215 30.7358 120.026 31.5678 122.005 31.8702C122.154 31.8926 122.303 31.9118 122.451 31.9278Z" fill="#203156"/>
<path d="M121.903 34.2559L121.178 37.3375L120.853 37.5663C117.89 36.7839 115.76 35.6719 114.594 34.9567L115.059 33.2223H115.061L115.837 30.3311C115.837 30.3295 116.869 33.4319 121.903 34.2559Z" fill="#F3F5F7"/>
<path d="M114.315 157.197C114.342 157.624 114.357 158.053 114.357 158.487C114.357 169.792 105.192 178.959 93.8846 178.959C82.5774 178.959 73.4126 169.792 73.4126 158.487C73.4126 147.179 82.5774 138.015 93.8846 138.015C103.086 138.015 110.87 144.087 113.448 152.442L105.025 154.671C103.44 150.042 99.051 146.714 93.8846 146.714C87.3838 146.714 82.1134 151.984 82.1134 158.487C82.1134 164.987 87.3838 170.258 93.8846 170.258C100.046 170.258 105.102 165.525 105.614 159.498L114.315 157.197Z" fill="#F3F5F7"/>
<path d="M95.4098 162.199L105.615 159.498C105.103 165.525 100.047 170.258 93.885 170.258C87.3842 170.258 82.1138 164.987 82.1138 158.487C82.1138 151.984 87.3842 146.714 93.885 146.714C99.053 146.714 103.44 150.042 105.026 154.671L94.1778 157.539C93.093 157.829 92.3826 158.807 92.3826 159.871C92.3826 160.104 92.4178 160.343 92.4898 160.579C92.8722 161.813 94.1602 162.53 95.4098 162.199Z" fill="#F3F5F7"/>
<path d="M169.115 105.627L164.394 122.624L160.794 136.391L160.754 136.543L159.485 141.399L153.955 140.123L136.331 136.058L135.411 135.845L136.203 133.085L136.402 132.416L141.37 115.706L143.64 107.786L121.939 105.65C115.763 105.042 110.43 101.962 106.819 97.485C103.72 93.6434 101.89 88.773 101.89 83.5554C101.89 82.8274 101.925 82.0914 101.997 81.3506L127.563 83.869L156.347 86.7058C160.501 87.1154 164.029 89.1762 166.416 92.1314C168.779 95.0562 170.026 98.8578 169.658 102.799C169.573 103.738 169.392 104.683 169.115 105.627Z" fill="#F3F5F7"/>
<path d="M87.8961 107.057L90.3153 122.745L79.3233 117.534L76.9473 105.84L87.8961 107.057Z" fill="#F3F5F7"/>
<path d="M87.8962 99.9134V100.016H55.029H14.3506V43.9326H87.8962V99.9134Z" fill="#F3F5F7"/>
<path d="M76.9474 105.84L79.3234 117.534L71.7042 113.961L70.0386 105.048L76.9474 105.84Z" fill="#203156"/>
<path d="M224.648 170.658C217.936 170.658 212.475 165.197 212.475 158.487C212.475 155.327 213.68 152.333 215.869 150.055L216.446 150.608C214.402 152.736 213.275 155.535 213.275 158.487C213.275 164.757 218.377 169.858 224.648 169.858C230.92 169.858 236.021 164.757 236.021 158.487C236.021 152.376 231.243 147.386 225.146 147.125L225.179 146.325C231.707 146.605 236.819 151.946 236.819 158.485C236.822 165.199 231.36 170.658 224.648 170.658Z" fill="#203156"/>
<path d="M224.648 179.358C213.139 179.358 203.776 169.995 203.776 158.486C203.776 152.001 206.713 145.997 211.837 142.009L212.328 142.641C207.401 146.475 204.576 152.251 204.576 158.486C204.576 169.553 213.581 178.558 224.648 178.558C235.715 178.558 244.72 169.553 244.72 158.486C244.72 147.419 235.715 138.414 224.648 138.414C223.625 138.414 222.59 138.493 221.574 138.646L221.454 137.856C222.51 137.696 223.585 137.614 224.648 137.614C236.157 137.614 245.52 146.977 245.52 158.486C245.52 169.995 236.157 179.358 224.648 179.358Z" fill="#203156"/>
<path d="M224.648 189.29C207.662 189.29 193.843 175.472 193.843 158.486C193.843 148.301 198.872 138.784 207.293 133.032L207.744 133.693C199.541 139.296 194.643 148.565 194.643 158.486C194.643 175.03 208.104 188.49 224.648 188.49C241.192 188.49 254.651 175.03 254.651 158.486C254.651 141.942 241.192 128.482 224.648 128.482C222.261 128.482 219.888 128.763 217.594 129.317L217.406 128.539C219.762 127.97 222.2 127.682 224.65 127.682C241.635 127.682 255.453 141.501 255.453 158.486C255.451 175.47 241.634 189.29 224.648 189.29Z" fill="#203156"/>
<path d="M93.8846 170.657C87.1726 170.657 81.7134 165.197 81.7134 158.486C81.7134 151.774 87.1742 146.313 93.8846 146.313C99.0894 146.313 103.718 149.619 105.405 154.541L104.648 154.8C103.073 150.201 98.747 147.113 93.8846 147.113C87.6142 147.113 82.5134 152.216 82.5134 158.486C82.5134 164.757 87.6142 169.857 93.8846 169.857C96.7518 169.857 99.491 168.787 101.597 166.845C103.691 164.912 104.976 162.291 105.216 159.464L106.013 159.531C105.755 162.558 104.381 165.363 102.139 167.432C99.8862 169.512 96.9534 170.657 93.8846 170.657Z" fill="#203156"/>
<path d="M93.8847 179.358C82.3759 179.358 73.0127 169.995 73.0127 158.486C73.0127 146.977 82.3759 137.614 93.8847 137.614C98.4351 137.614 102.76 139.053 106.39 141.774C109.901 144.406 112.544 148.152 113.83 152.323L113.065 152.558C111.829 148.547 109.288 144.945 105.91 142.414C102.419 139.797 98.2607 138.414 93.8847 138.414C82.8175 138.414 73.8127 147.419 73.8127 158.486C73.8127 169.553 82.8175 178.558 93.8847 178.558C104.952 178.558 113.957 169.553 113.957 158.486C113.957 158.062 113.942 157.638 113.915 157.222L114.713 157.169C114.742 157.603 114.757 158.045 114.757 158.486C114.757 169.995 105.393 179.358 93.8847 179.358Z" fill="#203156"/>
<path d="M93.8847 189.29C76.8991 189.29 63.0815 175.472 63.0815 158.486C63.0815 150.739 65.9679 143.336 71.2063 137.638C76.4143 131.976 83.4863 128.483 91.1199 127.803C92.0271 127.723 92.9567 127.682 93.8831 127.682C101.51 127.682 108.829 130.491 114.493 135.592C118.742 139.419 121.837 144.326 123.442 149.786L122.674 150.011C121.112 144.694 118.098 139.915 113.957 136.187C108.442 131.219 101.312 128.483 93.8831 128.483C92.9791 128.483 92.0735 128.523 91.1903 128.602C83.7551 129.264 76.8671 132.666 71.7951 138.181C66.6911 143.73 63.8815 150.942 63.8815 158.488C63.8815 175.032 77.3407 188.491 93.8847 188.491C110.429 188.491 123.89 175.032 123.89 158.488C123.89 157.218 123.808 155.934 123.65 154.674L124.443 154.573C124.606 155.867 124.69 157.186 124.69 158.488C124.69 175.47 110.87 189.29 93.8847 189.29Z" fill="#203156"/>
<path d="M179.079 138.414H178.311V137.614H179.079C180.589 137.614 182.031 137.139 183.248 136.24C184.463 135.342 185.343 134.102 185.792 132.656C187.539 127.045 190.962 119.186 197.354 113.606L197.88 114.21C191.631 119.666 188.272 127.382 186.557 132.894C186.056 134.504 185.077 135.883 183.725 136.883C182.368 137.885 180.762 138.414 179.079 138.414Z" fill="#203156"/>
<path d="M234.113 112.078C233.59 112.078 233.078 111.974 232.592 111.768C220.485 106.659 210.19 106.483 201.993 111.248L201.592 110.557C210.017 105.659 220.552 105.819 232.904 111.032C233.293 111.197 233.699 111.278 234.115 111.278C235.44 111.278 236.614 110.435 237.048 109.201C229.809 102.024 219.504 98.7022 209.43 100.309L207.971 100.541C205.083 101.003 202.217 99.5774 200.843 96.9918L195.555 87.0462C194.144 84.395 190.921 83.3406 188.217 84.6462L187.869 83.9262C190.961 82.4318 194.648 83.6382 196.261 86.6702L201.549 96.6158C202.763 98.899 205.291 100.158 207.845 99.7502L209.304 99.5182C219.71 97.8574 230.358 101.331 237.784 108.806L237.947 108.969L237.886 109.192C237.425 110.893 235.875 112.078 234.113 112.078Z" fill="#203156"/>
<path d="M141.803 161.054L138.659 160.865L138.238 159.824L138.981 159.524L139.213 160.097L141.851 160.256L141.803 161.054Z" fill="#203156"/>
<path d="M171.306 162.829L158.379 162.051L158.427 161.253L170.722 161.992L178.111 137.286L178.877 137.515L178.695 138.128L171.306 162.829Z" fill="#203156"/>
<path d="M132.824 146.355L127.773 133.802L128.515 133.504L133.595 146.13V146.206L133.194 146.208L132.824 146.355Z" fill="#203156"/>
<path d="M164.679 122.341L164.101 122.894L178.785 138.284L179.363 137.732L164.679 122.341Z" fill="#203156"/>
<path d="M135.584 137.062L130.777 140.412L131.234 141.068L136.041 137.718L135.584 137.062Z" fill="#203156"/>
<path d="M94.7872 162.68C93.5824 162.68 92.4816 161.903 92.1088 160.698C92.0256 160.427 91.9824 160.149 91.9824 159.871C91.9824 158.599 92.8432 157.48 94.0752 157.152L132.773 146.912L132.978 147.685L94.28 157.925C93.3984 158.16 92.7824 158.959 92.7824 159.869C92.7824 160.067 92.8128 160.266 92.872 160.459C93.192 161.493 94.2608 162.087 95.3072 161.81L131.195 152.312L131.4 153.085L95.512 162.583C95.2688 162.65 95.0256 162.68 94.7872 162.68Z" fill="#203156"/>
<path d="M163.792 141.069C163.736 140.944 163.661 140.781 163.576 140.618L164.287 140.25C164.379 140.429 164.461 140.605 164.52 140.74L163.792 141.069Z" fill="#203156"/>
<path d="M163.566 140.596C162.838 139.151 161.781 137.858 160.505 136.856C160.445 136.808 160.385 136.762 160.326 136.717L160.806 136.077C160.872 136.127 160.939 136.178 161.003 136.229C162.366 137.3 163.501 138.687 164.281 140.236L163.566 140.596Z" fill="#203156"/>
<path d="M114.291 136.283L114.16 135.494L135.477 131.974L130.146 114.067L130.914 113.838L136.503 132.615L114.291 136.283Z" fill="#203156"/>
<path d="M128.062 113.152L127.934 113.941L141.313 116.104L141.44 115.315L128.062 113.152Z" fill="#203156"/>
<path d="M90.7616 128.262L87.416 106.574L128.046 113.147L127.918 113.936L88.3744 107.541L91.552 128.141L90.7616 128.262Z" fill="#203156"/>
<path d="M90.1439 123.108L78.9711 117.81L76.4463 105.383L87.9391 106.661L87.8511 107.455L77.4479 106.3L79.6751 117.258L90.4863 122.384L90.1439 123.108Z" fill="#203156"/>
<path d="M79.1534 117.896L71.3486 114.237L69.5454 104.589L76.9918 105.443L76.9022 106.238L70.531 105.507L72.0606 113.686L79.4926 117.171L79.1534 117.896Z" fill="#203156"/>
<path d="M101.229 99.5137H87.896V100.314H101.229V99.5137Z" fill="#203156"/>
<path d="M70.0385 105.448H54.6289V99.9131H55.4289V104.648H70.0385V105.448Z" fill="#203156"/>
<path d="M127.985 113.941H127.905L127.829 113.912L100.829 102.749V96.8818L106.833 97.085L106.806 97.885L101.629 97.709V102.215L128.134 113.171L127.985 113.551V113.941Z" fill="#203156"/>
<path d="M166.648 92.4571L166.186 91.8043C169.325 89.5755 173.291 88.7291 177.066 89.4811L186.406 91.3419L186.25 92.1259L176.909 90.2651C173.349 89.5563 169.61 90.3547 166.648 92.4571Z" fill="#203156"/>
<path d="M169.679 102.409L169.64 103.208L192.504 104.316L192.543 103.517L169.679 102.409Z" fill="#203156"/>
<path d="M88.2958 100.416H13.9502V43.5332H88.2942V100.416H88.2958ZM14.7502 99.6164H87.4942V44.3332H14.7502V99.6164Z" fill="#203156"/>
<path d="M159.485 141.796C159.454 141.796 159.424 141.793 159.395 141.787L136.241 136.446L135.323 136.233C135.216 136.209 135.125 136.14 135.069 136.046C135.013 135.952 134.998 135.838 135.029 135.732L136.021 132.3L140.989 115.59L143.126 108.134L121.902 106.044C115.817 105.446 110.35 102.494 106.51 97.734C103.275 93.7244 101.493 88.6876 101.493 83.5548C101.493 82.8044 101.529 82.0492 101.603 81.3116C101.625 81.0924 101.821 80.9308 102.04 80.9532L127.606 83.4716L156.39 86.3084C160.481 86.7116 164.153 88.6908 166.731 91.8812C169.246 94.9948 170.429 98.886 170.061 102.838C169.969 103.811 169.782 104.788 169.502 105.74L164.782 122.731L159.873 141.499C159.824 141.678 159.662 141.796 159.485 141.796ZM136.421 135.667L159.195 140.92L164.006 122.521L168.729 105.518C168.997 104.609 169.174 103.683 169.261 102.761C169.609 99.0188 168.489 95.3324 166.105 92.382C163.664 89.3596 160.185 87.4844 156.309 87.1036L127.525 84.2668L102.36 81.7884C102.313 82.3724 102.289 82.9644 102.289 83.5548C102.289 88.5068 104.008 93.3644 107.129 97.2332C110.833 101.825 116.107 104.673 121.977 105.251L143.678 107.387C143.797 107.398 143.904 107.462 143.969 107.56C144.037 107.657 144.056 107.78 144.022 107.894L141.752 115.814L136.587 133.2L135.912 135.55L136.421 135.667Z" fill="#203156"/>
<path d="M127.282 84.3314C127.282 84.3314 127.243 84.2098 127.179 83.9778C126.675 82.1874 124.264 72.7506 126.352 62.917L127.134 63.0834C125.086 72.733 127.454 82.0018 127.95 83.7618C128.011 83.9778 128.046 84.0914 128.046 84.0946L127.282 84.3314Z" fill="#203156"/>
<path d="M101.629 81.5071C101.544 81.3039 99.5439 76.4351 99.7039 68.5135C99.7983 63.8703 100.624 59.1439 102.158 54.4687C104.075 48.6303 107.107 42.8527 111.173 37.2959L111.819 37.7679C107.811 43.2463 104.819 48.9391 102.93 54.6879C101.418 59.2831 100.603 63.9247 100.506 68.4847C100.419 72.5423 100.93 75.7823 101.373 77.7855C101.853 79.9583 102.362 81.1855 102.366 81.1983L101.629 81.5071Z" fill="#203156"/>
<path d="M161.886 72.1104C149.997 71.5072 139.84 69.4208 131.699 65.9088C130.576 65.4256 129.454 64.896 128.366 64.3328C127.762 64.0208 127.149 63.6896 126.546 63.344C119.262 59.1744 115.422 54.3168 113.485 50.9776C111.371 47.336 110.998 44.7088 110.982 44.5984L111.776 44.4912C111.779 44.5168 112.154 47.104 114.202 50.6176C116.091 53.8608 119.837 58.5824 126.944 62.6512C127.538 62.9904 128.139 63.3168 128.734 63.6224C129.806 64.176 130.912 64.6976 132.018 65.1744C140.072 68.648 150.136 70.7136 161.93 71.3104L161.886 72.1104Z" fill="#203156"/>
<path d="M164.003 65.2177C163.696 65.1585 163.392 65.0993 163.089 65.0369L163.248 64.2529C163.549 64.3137 163.849 64.3729 164.155 64.4321L164.003 65.2177Z" fill="#203156"/>
<path d="M163.09 65.0387C162.663 64.9555 162.242 64.8675 161.824 64.7795L161.987 63.9971C162.402 64.0835 162.819 64.1699 163.243 64.2531L163.09 65.0387Z" fill="#203156"/>
<path d="M161.813 64.7757C152.941 62.9069 145.181 60.2301 138.745 56.8173C138.192 56.5245 137.657 56.2301 137.158 55.9453C136.838 55.7645 136.544 55.5933 136.257 55.4221C135.56 55.0077 134.891 54.5917 134.27 54.1853C134.171 54.1213 134.067 54.0541 133.966 53.9869C124.926 47.9997 122.555 42.4093 122.459 42.1741L123.198 41.8701C123.221 41.9261 125.593 47.4829 134.408 53.3213C134.505 53.3869 134.605 53.4509 134.704 53.5149C135.318 53.9165 135.977 54.3277 136.665 54.7357C136.947 54.9037 137.238 55.0717 137.553 55.2509C138.046 55.5325 138.573 55.8221 139.12 56.1101C145.488 59.4877 153.179 62.1405 161.977 63.9933L161.813 64.7757Z" fill="#203156"/>
<path d="M124.126 42.5647C124.115 42.5647 124.102 42.5646 124.091 42.563C123.638 42.523 123.198 42.475 122.781 42.4206C114.768 41.3886 111.353 37.955 111.213 37.8094C111.085 37.6766 111.062 37.4734 111.161 37.3182L113.219 34.043C113.28 33.947 113.377 33.8814 113.491 33.8622C113.603 33.843 113.718 33.8718 113.808 33.9438C113.811 33.947 114.157 34.219 114.806 34.6158C116.035 35.3694 118.099 36.4254 120.958 37.1806C121.648 37.3614 122.358 37.5182 123.067 37.6462C123.219 37.6734 123.341 37.7854 123.382 37.9342L124.129 40.6526L124.517 42.0622C124.552 42.1886 124.521 42.3247 124.438 42.4239C124.357 42.5135 124.243 42.5647 124.126 42.5647ZM112.014 37.4606C112.888 38.2126 116.296 40.7806 122.881 41.627C123.11 41.6558 123.345 41.6846 123.587 41.7102L122.673 38.3854C122.027 38.2638 121.381 38.1182 120.752 37.9518C117.797 37.1726 115.659 36.0766 114.385 35.2958C114.083 35.1118 113.845 34.9518 113.669 34.8302L112.014 37.4606Z" fill="#203156"/>
<path d="M129.291 63.9004L128.595 63.5068L134.301 53.374L134.998 53.766L134.84 54.0492L129.291 63.9004Z" fill="#203156"/>
<path d="M165.349 74.1714C165.208 74.1714 165.065 74.165 164.923 74.1506C163.493 74.0082 162.233 73.1666 161.553 71.901C161.149 71.1506 160.977 70.301 161.062 69.4434C161.296 67.0802 163.408 65.349 165.769 65.5826C166.241 65.6306 166.696 65.7506 167.118 65.941L166.789 66.6706C166.445 66.5154 166.075 66.4178 165.689 66.3778C163.768 66.1874 162.048 67.597 161.857 69.5202C161.789 70.2178 161.928 70.909 162.257 71.5202C162.813 72.5522 163.838 73.237 165.003 73.3522C165.672 73.4194 166.342 73.2915 166.941 72.9842C168.008 72.4386 168.713 71.4002 168.832 70.2082C168.966 68.8466 168.289 67.5234 167.107 66.8354C167.005 66.7746 166.905 66.7234 166.801 66.6754L167.133 65.9474C167.261 66.005 167.387 66.0722 167.51 66.1442C168.961 66.9874 169.793 68.613 169.629 70.2866C169.483 71.7506 168.616 73.0242 167.305 73.6962C166.697 74.0098 166.027 74.1714 165.349 74.1714Z" fill="#203156"/>
<path d="M192.167 104.088L175.752 71.8432C175.525 71.3968 175.074 71.12 174.571 71.12C174.416 71.1168 174.261 71.1472 174.117 71.2L166.379 74.0416L166.103 73.2912L173.839 70.4496C174.071 70.3616 174.323 70.3184 174.573 70.3184C175.378 70.3184 176.103 70.7632 176.466 71.48L192.88 103.725L192.167 104.088Z" fill="#203156"/>
<path d="M192.525 104.306H192.523V103.506L192.525 104.306Z" fill="#203156"/>
<path d="M224.333 161.291C222.454 161.291 220.758 160.253 219.907 158.579L192.168 104.088L192.881 103.725L220.621 158.216C221.334 159.619 222.757 160.491 224.333 160.491C224.973 160.491 225.59 160.347 226.169 160.063C228.16 159.083 229.032 156.719 228.155 154.68L217.133 129.087C216.627 127.914 215.689 127.024 214.491 126.583C213.293 126.141 212.001 126.208 210.856 126.771L210.16 127.114C209.965 127.21 209.728 127.131 209.627 126.938L187.688 84.4706L178.877 66.9906C177.531 64.4546 176.041 64.2194 174.894 64.2978L174.84 63.4994C176.877 63.3586 178.384 64.3506 179.587 66.6226L188.4 84.1074L210.158 126.223L210.502 126.053C211.848 125.391 213.363 125.312 214.768 125.831C216.173 126.349 217.275 127.392 217.867 128.77L228.889 154.363C229.936 156.794 228.896 159.611 226.523 160.779C225.833 161.119 225.096 161.291 224.333 161.291Z" fill="#203156"/>
<path d="M174.866 70.8701L174.263 70.3437C174.693 69.8509 175.895 66.0333 174.541 64.1309C174.498 64.0733 174.442 64.0061 174.371 63.9261C174.365 63.9197 174.359 63.9117 174.354 63.9037C174.299 63.8349 172.975 62.1901 170.496 63.0413C170.488 63.0445 170.48 63.0461 170.472 63.0493L163.274 65.0317C163.239 65.0413 163.203 65.0461 163.168 65.0461L163.167 64.6429L163.061 64.2605L170.247 62.2813C171.819 61.7453 173.018 62.0749 173.747 62.4461C174.485 62.8221 174.903 63.3149 174.975 63.4045C175.058 63.4989 175.125 63.5789 175.184 63.6605C176.834 65.9725 175.467 70.1821 174.866 70.8701Z" fill="#203156"/>
<path d="M137.004 55.4145L131.499 65.3564L132.198 65.744L137.703 55.802L137.004 55.4145Z" fill="#203156"/>
<path d="M115.447 33.3249L114.674 33.1169L115.797 28.9297L116.568 29.1441L116.551 29.2065L115.447 33.3249Z" fill="#203156"/>
<path d="M114.674 33.1146L114.209 34.8486L114.982 35.0558L115.447 33.3218L114.674 33.1146Z" fill="#203156"/>
<path d="M121.568 37.4289L120.789 37.2449L122.15 31.4561L122.929 31.6369L121.568 37.4289Z" fill="#203156"/>
<path d="M123.653 32.3937C123.277 32.3937 122.901 32.3745 122.525 32.3377C122.506 32.3361 122.485 32.3329 122.463 32.3313L122.416 32.3265C122.24 32.3073 122.087 32.2881 121.941 32.2641C119.941 31.9601 118.079 31.1377 116.408 29.8209C116.239 29.6881 116.069 29.5473 115.904 29.4033C114.696 28.3473 113.653 27.0593 112.802 25.5745L113.496 25.1777C114.303 26.5857 115.29 27.8049 116.429 28.8017C116.584 28.9361 116.744 29.0689 116.903 29.1953C118.461 30.4257 120.199 31.1921 122.064 31.4769C122.2 31.4993 122.339 31.5169 122.493 31.5345C122.509 31.5361 122.531 31.5377 122.554 31.5409L122.6 31.5457C124.453 31.7313 126.282 31.4257 128.042 30.6369L128.368 31.3665C126.839 32.0497 125.256 32.3937 123.653 32.3937Z" fill="#203156"/>
<path d="M135.213 34.0432L111.397 25.1456L111.325 25.0368C109.448 22.1904 108.807 17.2464 109.144 13.8352C109.535 9.86877 111.448 6.29117 114.528 3.76157C117.61 1.23357 121.491 0.0559734 125.456 0.446373L125.506 0.454371C131.397 1.80957 135.512 5.45597 137.741 11.296C139.765 16.592 139.685 22.3088 139.456 25.2448C139.373 26.344 139.271 26.9952 139.266 27.0224L139.255 27.096L139.216 27.16L135.213 34.0432ZM128.277 30.5984L128.346 30.624L134.859 33.0576L138.487 26.8272C138.515 26.6304 138.592 26.0464 138.658 25.1856C138.88 22.3152 138.962 16.7328 136.992 11.5824C134.867 6.01597 130.952 2.53597 125.351 1.23997C121.605 0.876772 117.943 1.99197 115.034 4.37917C112.119 6.77277 110.309 10.1584 109.938 13.912C109.627 17.0608 110.219 21.8032 111.92 24.4864L128.277 30.5984Z" fill="#203156"/>
<path d="M138.929 25.5938L125.805 21.1282C124.894 20.8194 124.323 19.9346 124.416 18.9746C124.419 18.933 124.422 18.8914 124.422 18.8498C124.422 18.2914 124.048 17.7922 123.51 17.637L123.04 17.501C121.27 16.9122 120.163 15.2034 120.347 13.3474C120.547 11.3058 122.243 9.7666 124.291 9.7666C124.427 9.7666 124.56 9.773 124.685 9.7858L137.405 11.0386L137.326 11.8354L124.605 10.5826C124.505 10.573 124.4 10.5666 124.291 10.5666C122.656 10.5666 121.302 11.7954 121.142 13.4258C120.997 14.9058 121.877 16.2658 123.285 16.7394L123.731 16.8674C124.609 17.1202 125.222 17.9362 125.222 18.8482C125.222 18.9138 125.217 18.981 125.211 19.0498C125.153 19.6386 125.502 20.181 126.061 20.3698L139.185 24.8354L138.929 25.5938Z" fill="#203156"/>
<path d="M113.923 13.4876L113.131 13.3708C113.144 13.286 113.453 11.262 114.752 9.1004C115.96 7.0908 118.283 4.5948 122.491 4.1084L122.583 4.9036C115.143 5.7644 113.935 13.4108 113.923 13.4876Z" fill="#203156"/>
<path d="M129.381 13.9139L127.686 16.7158L128.37 17.1301L130.066 14.3281L129.381 13.9139Z" fill="#203156"/>
<path d="M134.63 14.4349L131.588 19.4277L132.271 19.844L135.313 14.8511L134.63 14.4349Z" fill="#203156"/>
<path d="M161.905 64.7892L161.805 64.7636L161.801 64.7748C152.493 62.5572 144.161 58.9796 137.038 54.1428C136.317 53.6548 135.597 53.1428 134.837 52.578C130.653 49.466 127.771 46.4804 126.088 44.5236C124.257 42.394 123.429 41.018 123.395 40.9604L124.081 40.5508C124.113 40.6052 127.44 46.0788 135.313 51.9364C136.064 52.4932 136.776 52.9988 137.488 53.4804C144.531 58.2628 152.774 61.8004 161.987 63.9956C162.019 64.0036 162.051 64.0148 162.08 64.0308L161.905 64.3652V64.7892Z" fill="#203156"/>
<path d="M136.802 55.2947L136.125 54.8675L137.032 53.4307L137.709 53.8595L136.802 55.2947Z" fill="#203156"/>
<path d="M134.608 53.7468L133.931 53.3212L134.84 51.8828L135.514 52.3132L134.608 53.7468Z" fill="#203156"/>
<path d="M19.656 70.6112H18.856V49.152C18.856 48.9312 19.0352 48.752 19.256 48.752H24.9824V49.552H19.656V70.6112Z" fill="#203156"/>
<path d="M153.56 140.031L151.408 148.621L152.184 148.815L154.336 140.225L153.56 140.031Z" fill="#203156"/>
<path d="M151.401 148.612L151.365 148.765L152.143 148.95L152.179 148.798L151.401 148.612Z" fill="#203156"/>
<path d="M152.134 149.024L151.358 148.829L151.37 148.784L152.152 148.949L152.134 149.024Z" fill="#203156"/>
<path d="M160.933 166.886C160.895 166.886 160.855 166.88 160.816 166.868L129.909 157.435C129.698 157.371 129.579 157.148 129.643 156.937L135.999 135.772L136.765 136.001L130.525 156.785L160.136 165.824L156.551 158.969L157.259 158.598L161.288 166.299C161.363 166.441 161.344 166.616 161.242 166.739C161.163 166.835 161.05 166.886 160.933 166.886Z" fill="#203156"/>
<path d="M151.648 149.314L151.586 149.298L133.59 144.927L133.774 144.147L133.87 144.17L151.846 148.539L151.648 149.314Z" fill="#203156"/>
<path d="M158.05 156.763L157.733 156.029C158.042 155.896 158.344 155.749 158.632 155.593C162.355 153.592 164.667 149.726 164.667 145.504C164.667 143.96 164.367 142.465 163.773 141.059C163.709 140.904 163.639 140.752 163.57 140.605C163.568 140.601 163.562 140.589 163.56 140.584L163.568 140.601C163.515 140.491 163.469 140.395 163.419 140.299C162.707 138.91 161.736 137.697 160.536 136.697L161.048 136.083C162.333 137.153 163.37 138.449 164.133 139.936C164.186 140.04 164.235 140.142 164.285 140.245C164.287 140.249 164.295 140.264 164.296 140.269C164.36 140.406 164.437 140.574 164.511 140.75C165.146 142.253 165.467 143.853 165.467 145.504C165.467 150.021 162.994 154.157 159.011 156.297C158.704 156.462 158.381 156.619 158.05 156.763Z" fill="#203156"/>
<path d="M164.157 158.141C162.12 158.141 160.192 157.491 158.579 156.262L159.064 155.625C160.536 156.747 162.296 157.341 164.157 157.341C168.798 157.341 172.574 153.565 172.574 148.923C172.574 144.283 168.798 140.509 164.157 140.509C164.035 140.509 163.913 140.512 163.793 140.517L163.76 139.717C163.891 139.712 164.024 139.707 164.157 139.707C169.238 139.707 173.374 143.841 173.374 148.921C173.374 154.006 169.24 158.141 164.157 158.141Z" fill="#203156"/>
<path d="M135.176 139.57L135.114 140.367L153.591 141.794L153.653 140.997L135.176 139.57Z" fill="#203156"/>
<path d="M155.226 159.808C153.712 159.808 152.438 158.674 152.261 157.171L151.282 148.891C151.282 148.89 151.282 148.888 151.282 148.887L151.277 148.842C151.258 148.667 151.354 148.499 151.515 148.429C151.677 148.359 151.866 148.402 151.979 148.536L152.054 148.623L157.48 154.859C157.851 155.287 158.093 155.802 158.178 156.351C158.339 157.376 157.95 158.426 157.165 159.091C156.96 159.269 156.722 159.419 156.458 159.539C156.062 159.717 155.65 159.808 155.226 159.808ZM152.222 150.037L153.054 157.077C153.184 158.178 154.118 159.008 155.226 159.008C155.534 159.008 155.837 158.943 156.125 158.813C156.318 158.725 156.493 158.615 156.643 158.485C157.221 157.997 157.504 157.229 157.386 156.477C157.323 156.077 157.147 155.699 156.875 155.387L152.222 150.037Z" fill="#203156"/>
<path d="M160.317 151.784C160.021 151.784 159.722 151.739 159.429 151.648L151.661 149.254C151.653 149.253 151.646 149.249 151.638 149.248L151.558 149.222H151.557L151.413 149.177C151.246 149.125 151.133 148.969 151.133 148.795C151.133 148.619 151.248 148.465 151.416 148.414L151.683 148.333C151.69 148.331 151.696 148.329 151.702 148.328L159.429 145.944C160.341 145.662 161.306 145.825 162.075 146.389C162.843 146.952 163.288 147.822 163.296 148.774V148.797C163.296 149.755 162.854 150.63 162.083 151.2C161.557 151.584 160.944 151.784 160.317 151.784ZM152.89 148.795L159.664 150.883C160.334 151.089 161.042 150.969 161.605 150.553C162.17 150.137 162.493 149.496 162.493 148.795V148.776C162.488 148.081 162.163 147.445 161.6 147.032C161.037 146.619 160.331 146.501 159.662 146.705L152.89 148.795Z" fill="#203156"/>
<path d="M113.782 34.5835L113.33 33.9243L114.832 32.8907C114.899 32.8443 114.978 32.8203 115.059 32.8203L115.061 33.2219L115.286 33.5499L113.782 34.5835Z" fill="#203156"/>
<path d="M121.838 34.6498C116.626 33.797 115.502 30.5906 115.458 30.4546L116.216 30.2002C116.256 30.3186 117.261 33.0898 121.968 33.8594L121.838 34.6498Z" fill="#203156"/>
<path d="M167.15 66.8595L166.782 66.6691L163.896 65.1811L164.262 64.4707L167.136 65.9523L167.152 65.9603L167.509 66.1443L167.15 66.8595Z" fill="#203156"/>
<path d="M138.622 56.2121L132.184 64.1357L132.805 64.6402L139.243 56.7166L138.622 56.2121Z" fill="#203156"/>
<path d="M271.87 188.489H0V189.289H271.87V188.489Z" fill="#203156"/>
</svg>
