<svg width="287" height="183" viewBox="0 0 287 183" fill="none" xmlns="http://www.w3.org/2000/svg">
<path d="M265.85 125.917L286.122 151.554L255.982 173.4L236.333 148.552L265.842 125.92L265.85 125.917Z" fill="#F3F5F7"/>
<path d="M253.588 110.408L265.85 125.917L265.842 125.92L231.863 142.898L219.119 126.781L230.508 128.771L239.591 130.496C242.399 130.987 245.074 129.107 245.566 126.299L248.066 112.034L249.302 104.987L251.153 94.4336C254.386 95.8576 256.644 99.0928 256.644 102.854C256.644 105.731 255.324 108.299 253.255 109.987L253.588 110.408Z" fill="#F3F5F7"/>
<path d="M265.842 125.92L236.333 148.552L231.863 142.898L265.842 125.92Z" fill="#203156"/>
<path d="M260.748 10.9759C263.556 11.4671 265.183 14.3952 264.692 17.2032L251.153 94.4335L249.301 104.987L248.066 112.034L245.565 126.299C245.074 129.107 242.399 130.987 239.591 130.496L230.508 128.771L234.94 129.546C237.749 130.037 240.425 128.157 240.916 125.349L243.402 111.122L260.041 15.9344C260.493 13.3408 258.929 10.8608 256.474 10.1104L260.748 10.9759Z" fill="#F3F5F7"/>
<path d="M256.474 10.1102C258.928 10.8606 260.493 13.3406 260.04 15.9342L243.402 111.121L240.915 125.349C240.424 128.157 237.749 130.037 234.939 129.545L230.507 128.771L219.119 126.781L180.986 120.115C178.176 119.624 176.296 116.949 176.787 114.139L195.914 4.72464C196.405 1.91504 199.08 0.0350399 201.89 0.52624L254.941 9.79984L254.965 9.80464L256.474 10.1102ZM241.824 76.5726C241.824 63.6446 231.343 53.163 218.415 53.163C205.485 53.163 195.005 63.6446 195.005 76.5726C195.005 89.5006 205.485 99.9822 218.415 99.9822C231.343 99.9822 241.824 89.5006 241.824 76.5726ZM213.944 117.907C213.944 115.411 211.92 113.387 209.424 113.387C207.128 113.387 205.231 115.099 204.943 117.315C204.915 117.509 204.903 117.705 204.903 117.907C204.903 120.405 206.927 122.429 209.424 122.429C209.626 122.429 209.824 122.416 210.018 122.389C212.234 122.099 213.944 120.203 213.944 117.907Z" fill="#F3F5F7"/>
<path d="M218.415 99.9823C231.344 99.9823 241.825 89.5014 241.825 76.5727C241.825 63.6439 231.344 53.1631 218.415 53.1631C205.486 53.1631 195.005 63.6439 195.005 76.5727C195.005 89.5014 205.486 99.9823 218.415 99.9823Z" fill="#F1842E"/>
<path d="M209.424 113.387C211.92 113.387 213.944 115.411 213.944 117.907C213.944 120.203 212.234 122.099 210.018 122.388L204.943 117.315C205.231 115.099 207.128 113.387 209.424 113.387Z" fill="#F3F5F7"/>
<path d="M204.943 117.315L210.018 122.389C209.824 122.416 209.626 122.429 209.424 122.429C206.927 122.429 204.903 120.405 204.903 117.907C204.903 117.706 204.916 117.509 204.943 117.315Z" fill="#203156"/>
<path d="M142.682 11.7793L123.639 19.9025V15.4593L142.682 11.7793Z" fill="#F3F5F7"/>
<path d="M142.682 11.7793L123.639 15.4593L117.452 16.6545L125.693 11.7793H142.682Z" fill="#F3F5F7"/>
<path d="M142.682 11.7788H125.693L119.303 6.73242L142.682 11.7788Z" fill="#F3F5F7"/>
<path d="M141.932 109.559C142.304 110.895 141.524 112.279 140.189 112.652L138.944 112.999L89.3189 126.843C87.9845 127.215 86.6005 126.435 86.2277 125.099L78.4389 97.1802L78.0261 95.7018C77.6549 94.3674 78.4341 92.9834 79.7701 92.6106L114.304 82.977L130.639 78.4202C131.975 78.0474 133.359 78.8282 133.732 80.1626L141.932 109.559ZM133.554 107.422C133.554 105.329 131.858 103.633 129.767 103.633C128.703 103.633 127.741 104.071 127.055 104.777C126.714 104.676 126.352 104.622 125.978 104.622C123.887 104.622 122.191 106.318 122.191 108.409C122.191 110.5 123.887 112.196 125.978 112.196C127.042 112.196 128.004 111.758 128.69 111.052C129.031 111.155 129.392 111.209 129.767 111.209C131.858 111.209 133.554 109.513 133.554 107.422Z" fill="#F1842E"/>
<path d="M139.282 114.209C139.695 115.691 138.829 117.229 137.346 117.643L120.949 122.217L87.0117 131.685C85.5285 132.097 83.9909 131.232 83.5765 129.749L75.5253 100.886C75.1125 99.4031 75.9781 97.8671 77.4613 97.4527L78.4389 97.1807L86.2277 125.099C86.6005 126.435 87.9845 127.216 89.3189 126.843L138.945 113L139.282 114.209Z" fill="#203156"/>
<path d="M129.767 103.634C131.858 103.634 133.554 105.33 133.554 107.423C133.554 109.514 131.858 111.21 129.767 111.21C129.392 111.21 129.031 111.155 128.69 111.053C129.357 110.37 129.767 109.439 129.767 108.41C129.767 106.693 128.623 105.242 127.055 104.778C127.741 104.072 128.703 103.634 129.767 103.634Z" fill="#203156"/>
<path d="M127.055 104.777C128.623 105.241 129.767 106.692 129.767 108.409C129.767 109.438 129.357 110.369 128.69 111.052C128.004 111.758 127.042 112.196 125.978 112.196C123.887 112.196 122.191 110.5 122.191 108.409C122.191 106.318 123.887 104.622 125.978 104.622C126.353 104.622 126.714 104.676 127.055 104.777Z" fill="#F3F5F7"/>
<path d="M128.106 161.936C128.597 164.746 126.719 167.421 123.909 167.912L75.3301 176.404L69.9557 177.343C67.1461 177.834 64.4709 175.956 63.9797 173.146L44.8533 63.7315C44.4645 61.5059 45.5621 59.3651 47.4325 58.3283L52.6597 57.1251L103.005 48.3251C105.815 47.8339 108.49 49.7123 108.981 52.5219L114.305 82.9779L79.7701 92.6115C78.4341 92.9843 77.6549 94.3683 78.0261 95.7027L78.4389 97.1811L77.4613 97.4531C75.9781 97.8675 75.1125 99.4035 75.5253 100.887L83.5765 129.749C83.9909 131.232 85.5285 132.098 87.0117 131.685L120.949 122.218L128.106 161.936ZM98.5669 166.1C98.5669 165.596 98.4853 165.111 98.3317 164.66C97.7301 162.869 96.0373 161.58 94.0453 161.58C91.5477 161.58 89.5237 163.604 89.5237 166.1C89.5237 168.597 91.5477 170.621 94.0453 170.621C96.5413 170.621 98.5669 168.597 98.5669 166.1Z" fill="#F3F5F7"/>
<path d="M98.3318 164.659C98.4854 165.11 98.567 165.595 98.567 166.099C98.567 168.597 96.5414 170.621 94.0454 170.621L98.3302 164.659H98.3318Z" fill="#203156"/>
<path d="M98.3319 164.659H98.3303L94.0455 170.621C91.5479 170.621 89.5239 168.597 89.5239 166.099C89.5239 163.603 91.5479 161.579 94.0455 161.579C96.0375 161.579 97.7303 162.869 98.3319 164.659Z" fill="#F3F5F7"/>
<path d="M75.3299 176.403L65.3043 178.613C62.4947 179.104 59.8195 177.226 59.3283 174.416L58.3747 168.96L49.9843 120.957L40.2035 65.0017C39.7123 62.1921 41.5907 59.5169 44.4003 59.0257L47.4323 58.3281C45.5619 59.3649 44.4643 61.5057 44.8531 63.7313L63.9795 173.146C64.4707 175.955 67.1459 177.834 69.9555 177.343L75.3299 176.403Z" fill="#F3F5F7"/>
<path d="M49.9847 120.957L58.3751 168.96L43.1911 173.285L40.1255 135.487L49.4567 132.829C48.2535 131.274 47.5367 129.322 47.5367 127.203C47.5367 124.792 48.4647 122.599 49.9847 120.957Z" fill="#F3F5F7"/>
<path d="M40.1254 135.486L43.191 173.285L43.1526 173.296L32.4326 137.678L40.1254 135.486Z" fill="#203156"/>
<path d="M32.4325 137.679L43.1525 173.296L11.9429 182.186L1.00049 146.631L32.4325 137.679Z" fill="#F3F5F7"/>
<path d="M69.063 177.82C66.4118 177.82 64.0566 175.913 63.5846 173.216L44.4598 63.7997C44.0518 61.4653 45.1686 59.1261 47.239 57.9773C47.7798 57.6765 48.367 57.4685 48.983 57.3597L102.937 47.9293C105.957 47.4013 108.847 49.4301 109.375 52.4509L114.698 82.9069L113.909 83.0445L108.586 52.5885C108.133 50.0013 105.66 48.2637 103.073 48.7165L49.119 58.1469C48.591 58.2397 48.0886 58.4173 47.6262 58.6749C45.8534 59.6573 44.8966 61.6605 45.247 63.6605L64.3734 173.075C64.8262 175.662 67.2998 177.4 69.887 176.947L123.841 167.516C126.428 167.064 128.164 164.592 127.713 162.003L120.556 122.286L121.343 122.144L128.5 161.862C129.028 164.886 127.001 167.774 123.978 168.304L70.0246 177.734C69.7014 177.793 69.3798 177.82 69.063 177.82Z" fill="#203156"/>
<path d="M64.4022 179.091C63.2678 179.091 62.1638 178.744 61.2166 178.08C60.0006 177.226 59.1894 175.949 58.9334 174.485L39.8102 65.0704C39.5542 63.6064 39.8838 62.1296 40.7366 60.9136C41.5878 59.7008 42.8614 58.8912 44.3206 58.6336L52.5702 56.7344L52.7494 57.5136L44.4694 59.4192C43.2166 59.6384 42.1222 60.3328 41.391 61.3728C40.6598 62.4144 40.3782 63.6784 40.5974 64.9312L59.7222 174.346C59.9414 175.598 60.6358 176.693 61.6758 177.424C62.7142 178.154 63.975 178.435 65.2262 178.219L75.2438 176.011L75.4166 176.792L65.3734 179.005C65.0502 179.064 64.7254 179.091 64.4022 179.091Z" fill="#203156"/>
<path d="M235.833 130.024C235.516 130.024 235.194 129.996 234.871 129.94L180.917 120.51C179.453 120.254 178.177 119.443 177.322 118.227C176.468 117.011 176.138 115.534 176.394 114.07L195.521 4.65562C196.049 1.63322 198.937 -0.395587 201.959 0.132413L255.01 9.40602L254.873 10.1948L201.821 0.921217C199.234 0.468417 196.761 2.20602 196.308 4.79482L177.181 114.209C176.962 115.462 177.244 116.726 177.977 117.768C178.708 118.809 179.802 119.504 181.055 119.723L235.009 129.153C237.594 129.606 240.069 127.868 240.522 125.281L243.009 111.054L259.647 15.8668C260.06 13.5036 258.645 11.1932 256.357 10.494C256.172 10.4364 255.981 10.39 255.773 10.3532L254.897 10.1996L255.034 9.41241L255.913 9.56602C256.154 9.60922 256.377 9.66202 256.593 9.73082C259.263 10.5468 260.916 13.2444 260.434 16.006L243.796 111.193L241.309 125.42C240.837 128.116 238.482 130.024 235.833 130.024Z" fill="#203156"/>
<path d="M240.482 130.974C240.165 130.974 239.843 130.947 239.52 130.891L230.431 129.164L230.579 128.379L239.663 130.104C242.243 130.555 244.715 128.819 245.168 126.232L264.295 17.1356C264.775 14.39 263.151 11.8044 260.675 11.3708L254.861 10.1932L255.016 9.40918L256.551 9.71958L260.824 10.5852C263.723 11.0924 265.639 14.094 265.083 17.2732L251.544 94.5036L245.957 126.369C245.487 129.067 243.133 130.974 240.482 130.974Z" fill="#203156"/>
<path d="M88.6407 127.338C88.1463 127.338 87.6583 127.211 87.2167 126.962C86.5399 126.579 86.0519 125.957 85.8423 125.208L77.6407 95.8112C77.2103 94.2656 78.1175 92.6576 79.6631 92.2272L130.532 78.0368C132.077 77.6064 133.685 78.512 134.117 80.0576L142.317 109.454C142.749 111 141.842 112.608 140.297 113.04L89.4263 127.23C89.1671 127.301 88.9031 127.338 88.6407 127.338ZM131.313 78.728C131.125 78.728 130.935 78.7536 130.746 78.8064L79.8775 92.9968C78.7575 93.3088 78.0999 94.4752 78.4119 95.5952L86.6135 124.992C86.7655 125.536 87.1191 125.987 87.6103 126.264C88.1015 126.541 88.6695 126.61 89.2119 126.458L140.082 112.267C141.202 111.954 141.86 110.787 141.546 109.667L133.346 80.2704C133.087 79.3392 132.236 78.728 131.313 78.728Z" fill="#203156"/>
<path d="M86.2646 132.187C84.8694 132.187 83.5846 131.264 83.191 129.856L75.1398 100.993C74.6694 99.3005 75.6614 97.5389 77.3542 97.0669L78.3318 96.7949L78.5462 97.5661L77.5686 97.8381C76.3014 98.1917 75.5574 99.5117 75.911 100.779L83.9622 129.641C84.3158 130.909 85.6374 131.653 86.9046 131.299L137.239 117.257C138.506 116.904 139.25 115.584 138.897 114.317L138.559 113.107L139.33 112.893L139.668 114.102C140.14 115.795 139.146 117.555 137.453 118.029L87.119 132.07C86.8342 132.149 86.5478 132.187 86.2646 132.187Z" fill="#203156"/>
<path d="M125.978 112.596C123.669 112.596 121.791 110.718 121.791 108.409C121.791 106.1 123.669 104.222 125.978 104.222C126.383 104.222 126.783 104.279 127.169 104.393C128.933 104.914 130.167 106.566 130.167 108.409C130.167 109.508 129.745 110.545 128.977 111.332C128.183 112.146 127.119 112.596 125.978 112.596ZM125.978 105.022C124.111 105.022 122.591 106.542 122.591 108.409C122.591 110.276 124.111 111.796 125.978 111.796C126.9 111.796 127.762 111.433 128.404 110.774C129.025 110.137 129.367 109.298 129.367 108.41C129.367 106.921 128.37 105.585 126.941 105.162C126.629 105.068 126.306 105.022 125.978 105.022Z" fill="#203156"/>
<path d="M129.767 111.609C129.359 111.609 128.959 111.55 128.575 111.436L128.805 110.67C129.114 110.763 129.437 110.809 129.767 110.809C131.634 110.809 133.154 109.289 133.154 107.422C133.154 105.553 131.634 104.033 129.767 104.033C128.845 104.033 127.983 104.396 127.341 105.055L126.769 104.497C127.562 103.681 128.628 103.231 129.767 103.231C132.076 103.231 133.954 105.11 133.954 107.42C133.954 109.731 132.076 111.609 129.767 111.609Z" fill="#203156"/>
<path d="M97.3494 107.162L87.8696 109.788L88.0832 110.559L97.563 107.933L97.3494 107.162Z" fill="#203156"/>
<path d="M109.873 103.56L100.393 106.187L100.607 106.957L110.086 104.331L109.873 103.56Z" fill="#203156"/>
<path d="M122.962 99.6206L113.482 102.247L113.696 103.018L123.176 100.392L122.962 99.6206Z" fill="#203156"/>
<path d="M218.415 100.382C205.287 100.382 194.605 89.7003 194.605 76.5723C194.605 63.4443 205.287 52.7627 218.415 52.7627C231.543 52.7627 242.225 63.4443 242.225 76.5723C242.225 89.7003 231.543 100.382 218.415 100.382ZM218.415 53.5627C205.727 53.5627 195.405 63.8843 195.405 76.5723C195.405 89.2603 205.727 99.5819 218.415 99.5819C231.103 99.5819 241.425 89.2603 241.425 76.5723C241.425 63.8843 231.103 53.5627 218.415 53.5627Z" fill="#203156"/>
<path d="M212.459 85.1784L206.767 76.796L207.429 76.348L212.635 84.0136L232.386 68.2344L232.885 68.8584L212.459 85.1784Z" fill="#203156"/>
<path d="M117.452 17.0539C117.288 17.0539 117.138 16.9531 117.077 16.7963C117.008 16.6139 117.08 16.4091 117.247 16.3099L125.488 11.4347L125.896 12.1227L119.64 15.8235L142.605 11.3867L142.757 12.1723L117.527 17.0459C117.501 17.0523 117.477 17.0539 117.452 17.0539Z" fill="#203156"/>
<path d="M142.682 12.1791H125.693C125.604 12.1791 125.516 12.1487 125.445 12.0927L119.055 7.04634C118.909 6.93114 118.861 6.72954 118.941 6.56155C119.021 6.39355 119.207 6.30234 119.388 6.34074L142.767 11.3871C142.967 11.4303 143.101 11.6175 143.081 11.8207C143.058 12.0255 142.887 12.1791 142.682 12.1791ZM125.833 11.3791H138.933L120.905 7.48794L125.833 11.3791Z" fill="#203156"/>
<path d="M123.639 20.3023C123.562 20.3023 123.485 20.2799 123.418 20.2367C123.306 20.1631 123.239 20.0367 123.239 19.9023V15.4591H124.039V19.2975L142.525 11.4111L142.839 12.1471L123.796 20.2703C123.746 20.2911 123.692 20.3023 123.639 20.3023Z" fill="#203156"/>
<path d="M42.8226 173.585L42.7698 173.41L32.0498 137.793L32.8146 137.562L43.5874 173.354L42.8226 173.585Z" fill="#203156"/>
<path d="M265.597 125.58L236.092 148.217L236.579 148.852L266.084 126.215L265.597 125.58Z" fill="#203156"/>
<path d="M42.8071 173.501L42.7926 173.315L39.7271 135.518L40.5238 135.454L43.6038 173.44L42.8071 173.501Z" fill="#203156"/>
<path d="M11.9428 182.585C11.7716 182.585 11.6132 182.475 11.5604 182.302L0.618041 146.747C0.586041 146.644 0.597242 146.532 0.648442 146.438C0.699642 146.343 0.787642 146.273 0.890042 146.244L32.322 137.292L48.7956 132.599C47.7076 131.006 47.1364 129.151 47.1364 127.201C47.1364 124.777 48.0436 122.462 49.6916 120.683L50.2788 121.227C48.7684 122.857 47.938 124.979 47.938 127.201C47.938 129.169 48.5732 131.028 49.7748 132.582C49.8564 132.687 49.8804 132.825 49.8388 132.951C49.7972 133.078 49.6964 133.175 49.5684 133.211L1.50604 146.9L12.2132 181.691L58.2692 168.572L58.4884 169.342L12.0564 182.567C12.0164 182.58 11.9796 182.585 11.9428 182.585Z" fill="#203156"/>
<path d="M255.981 173.8C255.863 173.8 255.746 173.747 255.668 173.648L218.805 127.028L219.432 126.532L256.056 172.851L285.549 151.475L265.536 126.166L252.941 110.236C252.805 110.065 252.832 109.817 253.002 109.678C255.063 107.998 256.244 105.51 256.244 102.856C256.244 99.3675 254.181 96.206 250.991 94.8012L251.314 94.0684C254.794 95.6012 257.044 99.0507 257.044 102.856C257.044 105.62 255.869 108.217 253.808 110.043L253.901 110.161L266.164 125.67L286.436 151.307C286.503 151.392 286.533 151.502 286.519 151.609C286.504 151.716 286.445 151.814 286.357 151.878L256.216 173.724C256.144 173.774 256.063 173.8 255.981 173.8Z" fill="#203156"/>
<path d="M232.042 143.256L231.685 142.541L265.664 125.563C265.675 125.558 265.685 125.554 265.696 125.549L265.866 125.97L266.021 126.278L232.042 143.256Z" fill="#203156"/>
<path d="M183.85 26.4763C183.357 26.0763 182.85 25.678 182.348 25.2924L182.639 24.9116C183.146 25.3004 183.655 25.7004 184.153 26.1036L183.85 26.4763ZM180.813 24.15C180.3 23.7788 179.773 23.4092 179.247 23.0492L179.517 22.6524C180.047 23.014 180.577 23.3868 181.093 23.7596L180.813 24.15ZM177.652 21.9916C177.117 21.6476 176.57 21.3068 176.028 20.9788L176.276 20.5675C176.821 20.8971 177.372 21.2411 177.911 21.5867L177.652 21.9916ZM174.378 20.0108C173.826 19.6972 173.261 19.3868 172.701 19.0892L172.927 18.6651C173.492 18.9659 174.06 19.278 174.615 19.5932L174.378 20.0108ZM170.999 18.214C170.429 17.9308 169.85 17.6523 169.274 17.3851L169.476 16.95C170.055 17.2188 170.641 17.4988 171.213 17.7836L170.999 18.214ZM167.525 16.6059C166.941 16.3547 166.346 16.1083 165.757 15.8747L165.935 15.4283C166.529 15.6652 167.129 15.9132 167.716 16.1644L167.525 16.6059ZM163.969 15.1916C163.37 14.9724 162.762 14.7596 162.162 14.5596L162.314 14.1051C162.919 14.3083 163.53 14.5228 164.133 14.742L163.969 15.1916ZM160.34 13.9755C159.732 13.7899 159.113 13.6124 158.501 13.4444L158.628 12.982C159.244 13.1516 159.868 13.3307 160.479 13.5179L160.34 13.9755ZM156.647 12.9628C156.028 12.8108 155.401 12.6668 154.781 12.534L154.882 12.0651C155.505 12.1995 156.137 12.3451 156.761 12.4971L156.647 12.9628ZM152.905 12.1563C152.279 12.0395 151.644 11.9292 151.018 11.83L151.093 11.3563C151.724 11.4555 152.362 11.566 152.993 11.6844L152.905 12.1563ZM149.122 11.5579C148.493 11.4763 147.853 11.4011 147.22 11.3371L147.269 10.8604C147.906 10.926 148.551 11.0012 149.185 11.0828L149.122 11.5579Z" fill="#203156"/>
<path d="M82.269 41.6792L81.8706 41.4104C82.229 40.8808 82.5986 40.3496 82.9714 39.8296L83.3618 40.1096C82.9922 40.6248 82.6242 41.1528 82.269 41.6792ZM84.4978 38.5688L84.1154 38.2792C84.5026 37.7688 84.901 37.2584 85.301 36.7608L85.6754 37.0616C85.2786 37.5544 84.8818 38.0616 84.4978 38.5688ZM86.893 35.5833L86.5266 35.2729C86.9394 34.7864 87.365 34.2968 87.7938 33.8216L88.1506 34.1416C87.7266 34.6152 87.3026 35.1 86.893 35.5833ZM89.4482 32.7352L89.0994 32.4056C89.5394 31.9416 89.9922 31.476 90.4434 31.0248L90.7826 31.3641C90.333 31.8121 89.885 32.2728 89.4482 32.7352ZM92.1538 30.0296L91.8242 29.6808C92.2882 29.2424 92.765 28.8024 93.2418 28.3752L93.5618 28.732C93.0882 29.1576 92.6146 29.5928 92.1538 30.0296ZM95.0034 27.476L94.693 27.1096C95.181 26.6968 95.6802 26.2841 96.1794 25.8841L96.4802 26.2584C95.9842 26.6568 95.4866 27.0664 95.0034 27.476ZM97.9874 25.0824L97.6978 24.7C98.2082 24.3128 98.7298 23.9288 99.2482 23.5576L99.5282 23.948C99.013 24.316 98.4946 24.6985 97.9874 25.0824ZM101.098 22.8552L100.829 22.4568C101.359 22.1 101.901 21.7432 102.44 21.4008L102.698 21.8056C102.162 22.148 101.624 22.5 101.098 22.8552ZM104.327 20.8025L104.08 20.3912C104.631 20.0616 105.191 19.7368 105.746 19.4248L105.981 19.8441C105.429 20.1529 104.872 20.4761 104.327 20.8025ZM107.661 18.9304L107.437 18.5048C108.003 18.2072 108.581 17.9145 109.154 17.6329L109.365 18.0633C108.797 18.3433 108.224 18.6344 107.661 18.9304ZM111.095 17.2441L110.895 16.8072C111.477 16.5416 112.069 16.2792 112.656 16.0312L112.843 16.4729C112.261 16.7193 111.672 16.9801 111.095 17.2441Z" fill="#203156"/>
<path d="M94.0451 171.02C91.3315 171.02 89.1235 168.812 89.1235 166.099C89.1235 163.385 91.3315 161.179 94.0451 161.179C96.1619 161.179 98.0371 162.526 98.7107 164.531C98.8803 165.03 98.9667 165.558 98.9667 166.099C98.9667 168.812 96.7587 171.02 94.0451 171.02ZM94.0451 161.979C91.7731 161.979 89.9235 163.827 89.9235 166.099C89.9235 168.371 91.7731 170.22 94.0451 170.22C96.3171 170.22 98.1667 168.371 98.1667 166.099C98.1667 165.646 98.0947 165.204 97.9523 164.788C97.3875 163.107 95.8179 161.979 94.0451 161.979Z" fill="#203156"/>
<path d="M209.425 122.828C206.711 122.828 204.503 120.62 204.503 117.906C204.503 117.684 204.517 117.466 204.546 117.258C204.863 114.825 206.959 112.986 209.425 112.986C212.138 112.986 214.345 115.193 214.345 117.906C214.345 120.369 212.508 122.465 210.073 122.785C209.865 122.814 209.647 122.828 209.425 122.828ZM209.425 113.786C207.361 113.786 205.605 115.326 205.34 117.366C205.316 117.54 205.303 117.721 205.303 117.906C205.303 120.178 207.153 122.028 209.425 122.028C209.612 122.028 209.793 122.015 209.962 121.991H209.965C212.005 121.724 213.543 119.969 213.543 117.906C213.545 115.634 211.697 113.786 209.425 113.786Z" fill="#203156"/>
<path d="M83.804 55.9603L79.4541 56.7764L79.6016 57.5627L83.9515 56.7466L83.804 55.9603Z" fill="#203156"/>
<path d="M76.7828 57.2784L66.7163 59.167L66.8638 59.9533L76.9303 58.0648L76.7828 57.2784Z" fill="#203156"/>
<path d="M235.189 9.75593L235.046 10.543L240.176 11.479L240.319 10.6919L235.189 9.75593Z" fill="#203156"/>
<path d="M215.581 6.18269L215.438 6.96973L231.751 9.94627L231.895 9.15923L215.581 6.18269Z" fill="#203156"/>
<path d="M98.0174 164.43L93.7324 170.393L94.3821 170.859L98.6671 164.897L98.0174 164.43Z" fill="#203156"/>
<path d="M205.223 117.036L204.658 117.602L209.733 122.675L210.298 122.109L205.223 117.036Z" fill="#203156"/>
<path d="M184.09 26.6014C184.085 26.6014 184.081 26.6014 184.076 26.6014L182.028 26.4782L182.057 25.9998L183.761 26.1022L183.309 24.6158L183.769 24.4766L184.319 26.2942C184.341 26.3694 184.327 26.451 184.277 26.5118C184.233 26.5678 184.164 26.6014 184.09 26.6014Z" fill="#203156"/>
</svg>
