<svg width="282" height="158" viewBox="0 0 282 158" fill="none" xmlns="http://www.w3.org/2000/svg">
<path d="M269.565 47.7184V48.4176C269.088 48.5744 268.578 48.6608 268.046 48.6608C265.363 48.6608 263.19 46.488 263.19 43.8096C263.19 43.1328 263.325 42.4928 263.574 41.9072H263.755C266.963 41.9072 269.565 44.5088 269.565 47.7184Z" fill="#F3F5F7"/>
<path d="M253.347 42.4411V44.0938H241.584V34.4395H246.928C248.25 34.4395 249.464 35.1674 250.086 36.3338L253.347 42.4411Z" fill="#F3F5F7"/>
<path d="M253.347 44.0938V50.2298L249.829 53.7482H241.584V44.0938H253.347Z" fill="#F3F5F7"/>
<path d="M269.565 48.4175V57.7136H262.258C262.258 54.96 260.024 52.7263 257.271 52.7263C254.515 52.7263 252.283 54.96 252.283 57.7136H213.997C213.997 54.96 211.763 52.7263 209.01 52.7263C206.255 52.7263 204.023 54.96 204.023 57.7136H190.951V50.2943H237.81V30.4688H248.037C250.549 30.4688 252.842 31.8976 253.947 34.152L257.755 41.9071H263.575C263.325 42.4927 263.191 43.1328 263.191 43.8096C263.191 46.488 265.363 48.6608 268.047 48.6608C268.578 48.6608 269.088 48.5743 269.565 48.4175ZM253.347 50.2304V44.0943V42.4416L250.087 36.3343C249.464 35.1679 248.25 34.44 246.928 34.44H241.584V44.0943V53.7487H249.829L253.347 50.2304Z" fill="#F3F5F7"/>
<path d="M226.349 30.4688H197.275V37.992H226.349V30.4688Z" fill="#F3F5F7"/>
<path d="M148.322 20.2656C150.05 20.2656 151.451 21.6672 151.451 23.3952C151.451 25.1232 150.05 26.5232 148.322 26.5232C146.595 26.5232 145.194 25.1232 145.194 23.3952C145.194 21.6672 146.595 20.2656 148.322 20.2656Z" fill="#F3F5F7"/>
<path d="M133.365 148.041L128.295 153.112C125.495 153.112 123.224 150.841 123.224 148.041C123.224 145.241 125.495 142.971 128.295 142.971C131.095 142.971 133.365 145.241 133.365 148.041Z" fill="#F3F5F7"/>
<path d="M99.8481 91.5967C101.501 91.5967 102.84 92.9375 102.84 94.5903C102.84 96.2431 101.501 97.5823 99.8481 97.5823C98.1953 97.5823 96.8545 96.2431 96.8545 94.5903C96.8545 92.9375 98.1953 91.5967 99.8481 91.5967Z" fill="#F3F5F7"/>
<path d="M147.216 42.9024C147.216 43.9552 148.071 44.808 149.122 44.808C150.175 44.808 151.029 43.9552 151.029 42.9024C151.029 41.8496 150.175 40.9968 149.122 40.9968C148.071 40.9968 147.216 41.8496 147.216 42.9024ZM167.728 4.8704V152.896C167.728 155.034 165.996 156.766 163.858 156.766H154.503H88.7444C86.6068 156.766 84.874 155.034 84.874 152.896V4.8704C84.874 2.7328 86.6068 1 88.7444 1H155.68H163.858C165.996 1 167.728 2.7328 167.728 4.8704ZM155.002 24.8368C156.796 20.1552 153.338 15.128 148.324 15.128C144.196 15.128 141.165 18.5136 141.165 22.2768C141.165 23.2608 141.372 24.2688 141.82 25.2496L147.119 36.8528C147.783 38.304 149.868 38.2384 150.437 36.7488L155.002 24.8368ZM133.365 148.042C133.365 145.242 131.095 142.971 128.295 142.971C125.495 142.971 123.224 145.242 123.224 148.042C123.224 150.842 125.495 153.112 128.295 153.112C131.095 153.112 133.365 150.842 133.365 148.042ZM106.237 95.9696C107.952 91.4912 104.645 86.6816 99.8484 86.6816C95.8996 86.6816 93.0004 89.9216 93.0004 93.5216C93.0004 94.4624 93.1972 95.4272 93.626 96.3648L98.6964 107.464C99.3316 108.853 101.325 108.79 101.871 107.363L106.237 95.9696ZM102.141 113.786C102.141 112.835 101.372 112.066 100.421 112.066C99.4724 112.066 98.7028 112.835 98.7028 113.786C98.7028 114.734 99.4724 115.504 100.421 115.504C101.372 115.504 102.141 114.734 102.141 113.786Z" fill="#F3F5F7"/>
<path d="M39.7217 105.462V121.55H12.0225V105.462H31.6321H37.8369H39.7217ZM30.5697 110.616V109.124H21.1745V110.616H30.5697Z" fill="#F3F5F7"/>
<path d="M65.5361 102.52V121.55H39.7217V105.462H37.8369V102.52H59.3329H65.5361ZM57.0753 107.848V106.294H47.6801V107.848H57.0753Z" fill="#F3F5F7"/>
<path d="M174.132 7.9392V149.826C174.132 153.659 171.024 156.766 167.191 156.766H163.858C165.996 156.766 167.728 155.034 167.728 152.896V4.8704C167.728 2.7328 165.996 1 163.858 1H167.191C171.024 1 174.132 4.1072 174.132 7.9392Z" fill="#203156"/>
<path d="M128.294 153.111L133.365 148.041C133.365 150.841 131.094 153.111 128.294 153.111Z" fill="#203156"/>
<path d="M262.258 57.7128C262.258 60.468 260.024 62.7 257.27 62.7C254.515 62.7 252.283 60.468 252.283 57.7128C252.283 54.9592 254.515 52.7256 257.27 52.7256C260.024 52.7256 262.258 54.9592 262.258 57.7128ZM259.498 57.7128C259.498 56.4824 258.501 55.484 257.27 55.484C256.04 55.484 255.042 56.4824 255.042 57.7128C255.042 58.9432 256.04 59.9416 257.27 59.9416C258.501 59.9416 259.498 58.9432 259.498 57.7128Z" fill="#203156"/>
<path d="M257.271 57.376C257.458 57.376 257.608 57.5264 257.608 57.7136C257.608 57.9008 257.458 58.0528 257.271 58.0528C257.084 58.0528 256.932 57.9008 256.932 57.7136C256.932 57.5264 257.084 57.376 257.271 57.376Z" fill="#203156"/>
<path d="M237.81 30.468V50.2936H190.951H184.418V17.5H237.81V30.468ZM226.349 37.9912V30.468H197.276V37.9912H226.349Z" fill="#F1842E"/>
<path d="M213.997 57.7128C213.997 60.468 211.763 62.7 209.01 62.7C206.254 62.7 204.022 60.468 204.022 57.7128C204.022 54.9592 206.254 52.7256 209.01 52.7256C211.763 52.7256 213.997 54.9592 213.997 57.7128ZM211.238 57.7128C211.238 56.4824 210.24 55.484 209.01 55.484C207.779 55.484 206.781 56.4824 206.781 57.7128C206.781 58.9432 207.779 59.9416 209.01 59.9416C210.24 59.9416 211.238 58.9432 211.238 57.7128Z" fill="#203156"/>
<path d="M209.01 57.376C209.197 57.376 209.347 57.5264 209.347 57.7136C209.347 57.9008 209.197 58.0528 209.01 58.0528C208.822 58.0528 208.67 57.9008 208.67 57.7136C208.67 57.5264 208.822 57.376 209.01 57.376Z" fill="#203156"/>
<path d="M148.323 15.1279C153.338 15.1279 156.795 20.1551 155.002 24.8367L150.437 36.7487C149.867 38.2383 147.783 38.3039 147.119 36.8527L141.819 25.2495C141.371 24.2687 141.165 23.2607 141.165 22.2767C141.165 18.5135 144.195 15.1279 148.323 15.1279ZM151.451 23.3951C151.451 21.6671 150.05 20.2655 148.322 20.2655C146.595 20.2655 145.194 21.6671 145.194 23.3951C145.194 25.1231 146.595 26.5231 148.322 26.5231C150.05 26.5231 151.451 25.1231 151.451 23.3951Z" fill="#F3F5F7"/>
<path d="M149.122 40.9961C150.175 40.9961 151.029 41.8489 151.029 42.9017C151.029 43.9545 150.175 44.8073 149.122 44.8073C148.071 44.8073 147.216 43.9545 147.216 42.9017C147.216 41.8489 148.071 40.9961 149.122 40.9961Z" fill="#F1842E"/>
<path d="M99.848 86.6816C104.645 86.6816 107.952 91.4912 106.237 95.9697L101.87 107.363C101.325 108.79 99.3312 108.853 98.696 107.464L93.6256 96.3648C93.1968 95.4272 93 94.4624 93 93.5216C93 89.9216 95.8992 86.6816 99.848 86.6816ZM102.84 94.5905C102.84 92.9377 101.501 91.5969 99.848 91.5969C98.1952 91.5969 96.8544 92.9377 96.8544 94.5905C96.8544 96.2433 98.1952 97.5824 99.848 97.5824C101.501 97.5824 102.84 96.2433 102.84 94.5905Z" fill="#F3F5F7"/>
<path d="M100.421 112.065C101.371 112.065 102.141 112.835 102.141 113.785C102.141 114.734 101.371 115.504 100.421 115.504C99.4722 115.504 98.7026 114.734 98.7026 113.785C98.7026 112.835 99.4722 112.065 100.421 112.065Z" fill="#203156"/>
<path d="M59.3331 86.332V102.519H37.8371V105.462H31.6323V86.332H59.3331ZM50.0659 91.388V90.0408H40.6707V91.388H50.0659Z" fill="#F1842E"/>
<path d="M57.0754 106.294H47.6802V107.848H57.0754V106.294Z" fill="#203156"/>
<path d="M50.0656 90.041H40.6704V91.3882H50.0656V90.041Z" fill="#203156"/>
<path d="M30.57 109.124H21.1748V110.615H30.57V109.124Z" fill="#203156"/>
<path d="M163.858 157.166V156.366C165.772 156.366 167.328 154.809 167.328 152.896V4.87001C167.328 2.95641 165.772 1.39961 163.858 1.39961V0.599609C166.213 0.599609 168.128 2.51481 168.128 4.87001V152.896C168.128 155.251 166.213 157.166 163.858 157.166Z" fill="#203156"/>
<path d="M154.502 157.166H88.744C86.3888 157.166 84.4736 155.251 84.4736 152.896V4.87001C84.4736 2.51481 86.3888 0.599609 88.744 0.599609H155.68V1.39961H88.744C86.8304 1.39961 85.2736 2.95641 85.2736 4.87001V152.896C85.2736 154.809 86.8304 156.366 88.744 156.366H154.502V157.166Z" fill="#203156"/>
<path d="M167.19 157.166H154.502V156.366H167.19C170.797 156.366 173.731 153.432 173.731 149.825V7.93881C173.731 4.33241 170.797 1.39961 167.19 1.39961H155.68V0.599609H167.19C171.238 0.599609 174.531 3.89241 174.531 7.93881V149.825C174.531 153.873 171.238 157.166 167.19 157.166Z" fill="#203156"/>
<path d="M128.295 153.512C125.279 153.512 122.824 151.058 122.824 148.042C122.824 145.026 125.279 142.571 128.295 142.571C131.311 142.571 133.765 145.026 133.765 148.042C133.765 151.058 131.311 153.512 128.295 153.512ZM128.295 143.371C125.719 143.371 123.624 145.466 123.624 148.042C123.624 150.616 125.719 152.712 128.295 152.712C130.871 152.712 132.965 150.618 132.965 148.042C132.965 145.466 130.871 143.371 128.295 143.371Z" fill="#203156"/>
<path d="M139.114 4.95508H131.581V5.75508H139.114V4.95508Z" fill="#203156"/>
<path d="M128.064 4.95508H112.239V5.75508H128.064V4.95508Z" fill="#203156"/>
<path d="M100.258 108.87C99.4178 108.87 98.685 108.4 98.3314 107.63L93.261 96.5309C92.8226 95.5709 92.5986 94.558 92.5986 93.5212C92.5986 89.5292 95.8498 86.2812 99.8466 86.2812C102.231 86.2812 104.461 87.454 105.813 89.4188C107.165 91.3836 107.463 93.8861 106.61 96.1117L102.243 107.505C101.933 108.318 101.199 108.841 100.33 108.868C100.306 108.87 100.282 108.87 100.258 108.87ZM99.8482 87.0812C96.293 87.0812 93.4002 89.9708 93.4002 93.5212C93.4002 94.4428 93.5986 95.3437 93.989 96.1981L99.0594 107.297C99.3298 107.888 99.8818 108.084 100.304 108.07C100.728 108.057 101.264 107.827 101.496 107.22L105.863 95.8269C106.632 93.8173 106.375 91.6477 105.154 89.8733C103.935 88.0989 102 87.0812 99.8482 87.0812Z" fill="#203156"/>
<path d="M99.8482 97.9819C97.9762 97.9819 96.4546 96.4603 96.4546 94.5899C96.4546 92.7179 97.9762 91.1963 99.8482 91.1963C101.719 91.1963 103.24 92.7179 103.24 94.5899C103.24 96.4603 101.719 97.9819 99.8482 97.9819ZM99.8482 91.9963C98.4178 91.9963 97.2546 93.1595 97.2546 94.5899C97.2546 96.0187 98.4178 97.1819 99.8482 97.1819C101.277 97.1819 102.44 96.0187 102.44 94.5899C102.44 93.1595 101.277 91.9963 99.8482 91.9963Z" fill="#203156"/>
<path d="M148.752 38.3035C147.88 38.3035 147.12 37.8155 146.756 37.0187L141.456 25.4155C140.999 24.4123 140.765 23.3563 140.765 22.2763C140.765 18.1131 144.156 14.7275 148.324 14.7275C150.81 14.7275 153.136 15.9515 154.546 17.9995C155.956 20.0475 156.266 22.6571 155.376 24.9787L150.812 36.8907C150.49 37.7323 149.73 38.2731 148.828 38.3019C148.802 38.3035 148.776 38.3035 148.752 38.3035ZM148.324 15.5275C144.597 15.5275 141.565 18.5547 141.565 22.2763C141.565 23.2411 141.773 24.1851 142.183 25.0827L147.482 36.6859C147.768 37.3099 148.352 37.5195 148.8 37.5035C149.25 37.4891 149.818 37.2459 150.063 36.6059L154.628 24.6939C155.434 22.5867 155.164 20.3131 153.885 18.4539C152.608 16.5947 150.58 15.5275 148.324 15.5275Z" fill="#203156"/>
<path d="M148.322 26.9228C146.376 26.9228 144.794 25.3404 144.794 23.3948C144.794 21.4492 146.376 19.8652 148.322 19.8652C150.268 19.8652 151.852 21.4492 151.852 23.3948C151.852 25.3404 150.268 26.9228 148.322 26.9228ZM148.322 20.6652C146.818 20.6652 145.594 21.8892 145.594 23.3948C145.594 24.8988 146.818 26.1228 148.322 26.1228C149.828 26.1228 151.052 24.8988 151.052 23.3948C151.052 21.8892 149.828 20.6652 148.322 20.6652Z" fill="#203156"/>
<path d="M100.421 115.903C99.2531 115.903 98.3027 114.953 98.3027 113.785C98.3027 112.615 99.2531 111.665 100.421 111.665C101.591 111.665 102.541 112.615 102.541 113.785C102.541 114.953 101.591 115.903 100.421 115.903ZM100.421 112.465C99.6947 112.465 99.1027 113.057 99.1027 113.785C99.1027 114.511 99.6947 115.103 100.421 115.103C101.149 115.103 101.741 114.511 101.741 113.785C101.741 113.057 101.149 112.465 100.421 112.465Z" fill="#203156"/>
<path d="M129.919 114.483H106.696V113.683H129.119V81.7516H111.839V42.502H147.216V43.302H112.639V80.9516H129.919V114.483Z" fill="#203156"/>
<path d="M149.122 45.2079C147.85 45.2079 146.816 44.1743 146.816 42.9023C146.816 41.6303 147.85 40.5967 149.122 40.5967C150.394 40.5967 151.429 41.6303 151.429 42.9023C151.429 44.1743 150.394 45.2079 149.122 45.2079ZM149.122 41.3967C148.292 41.3967 147.616 42.0719 147.616 42.9023C147.616 43.7327 148.292 44.4079 149.122 44.4079C149.952 44.4079 150.629 43.7327 150.629 42.9023C150.629 42.0719 149.952 41.3967 149.122 41.3967Z" fill="#203156"/>
<path d="M238.21 50.6942H184.018V17.1006H238.21V50.6942ZM184.818 49.8942H237.41V17.9006H184.818V49.8942Z" fill="#203156"/>
<path d="M269.965 58.1132H262.16V57.3132H269.165V47.718C269.165 44.734 266.738 42.3068 263.755 42.3068H257.506L253.587 34.3276C252.557 32.2252 250.378 30.8684 248.035 30.8684H237.328V30.0684H248.035C250.68 30.0684 253.141 31.6012 254.304 33.9756L258.002 41.5068H263.752C267.176 41.5068 269.962 44.2924 269.962 47.718V58.1132H269.965Z" fill="#203156"/>
<path d="M252.712 57.3135H213.701V58.1135H252.712V57.3135Z" fill="#203156"/>
<path d="M204.18 58.1132H190.551V50.2939H191.351V57.3132H204.18V58.1132Z" fill="#203156"/>
<path d="M249.995 54.1488H241.184V34.04H246.928C248.4 34.04 249.746 34.8464 250.44 36.1456L253.747 42.3408V50.3952L249.995 54.1488ZM241.984 53.3488H249.664L252.947 50.064V42.5408L249.734 36.5216C249.181 35.4832 248.106 34.8384 246.93 34.8384H241.986V53.3488H241.984Z" fill="#203156"/>
<path d="M253.347 43.6943H241.584V44.4943H253.347V43.6943Z" fill="#203156"/>
<path d="M246.735 46.9404H244.096V47.7404H246.735V46.9404Z" fill="#203156"/>
<path d="M268.047 49.0604C265.149 49.0604 262.791 46.7052 262.791 43.8092C262.791 43.0908 262.931 42.398 263.207 41.75L263.943 42.0636C263.709 42.6108 263.591 43.198 263.591 43.8092C263.591 46.2636 265.589 48.2604 268.047 48.2604C268.52 48.2604 268.991 48.1852 269.44 48.0364L269.69 48.7964C269.159 48.9724 268.607 49.0604 268.047 49.0604Z" fill="#203156"/>
<path d="M257.271 63.1006C254.299 63.1006 251.883 60.6846 251.883 57.7134C251.883 54.7422 254.299 52.3262 257.271 52.3262C260.242 52.3262 262.658 54.7422 262.658 57.7134C262.658 60.6846 260.242 63.1006 257.271 63.1006ZM257.271 53.1262C254.741 53.1262 252.683 55.1838 252.683 57.7134C252.683 60.243 254.741 62.3006 257.271 62.3006C259.8 62.3006 261.858 60.243 261.858 57.7134C261.858 55.1838 259.8 53.1262 257.271 53.1262Z" fill="#203156"/>
<path d="M209.01 63.1006C206.039 63.1006 203.623 60.6846 203.623 57.7134C203.623 54.7422 206.039 52.3262 209.01 52.3262C211.981 52.3262 214.397 54.7422 214.397 57.7134C214.397 60.6846 211.981 63.1006 209.01 63.1006ZM209.01 53.1262C206.48 53.1262 204.423 55.1838 204.423 57.7134C204.423 60.243 206.48 62.3006 209.01 62.3006C211.539 62.3006 213.597 60.243 213.597 57.7134C213.597 55.1838 211.539 53.1262 209.01 53.1262Z" fill="#203156"/>
<path d="M226.749 38.3916H196.875V30.0684H226.749V38.3916ZM197.675 37.5916H225.949V30.8684H197.675V37.5916Z" fill="#203156"/>
<path d="M219.962 43.6943H202.149V44.4943H219.962V43.6943Z" fill="#203156"/>
<path d="M281.379 62.3008H181.771V63.1008H281.379V62.3008Z" fill="#203156"/>
<path d="M209.01 60.3416C207.56 60.3416 206.381 59.1624 206.381 57.7128C206.381 56.2632 207.56 55.084 209.01 55.084C210.459 55.084 211.638 56.2632 211.638 57.7128C211.638 59.1624 210.459 60.3416 209.01 60.3416ZM209.01 55.884C208.002 55.884 207.181 56.7048 207.181 57.7128C207.181 58.7208 208.002 59.5416 209.01 59.5416C210.018 59.5416 210.838 58.7208 210.838 57.7128C210.838 56.7048 210.018 55.884 209.01 55.884Z" fill="#203156"/>
<path d="M257.27 60.3416C255.821 60.3416 254.642 59.1624 254.642 57.7128C254.642 56.2632 255.821 55.084 257.27 55.084C258.718 55.084 259.898 56.2632 259.898 57.7128C259.898 59.1624 258.718 60.3416 257.27 60.3416ZM257.27 55.884C256.262 55.884 255.442 56.7048 255.442 57.7128C255.442 58.7208 256.262 59.5416 257.27 59.5416C258.278 59.5416 259.098 58.7208 259.098 57.7128C259.098 56.7048 258.278 55.884 257.27 55.884Z" fill="#203156"/>
<path d="M81.3586 121.15H0.200195V121.95H81.3586V121.15Z" fill="#203156"/>
<path d="M65.9362 121.55H65.1362V102.919H38.237V105.462H37.437V102.119H65.9362V121.55Z" fill="#203156"/>
<path d="M40.1218 121.55H39.3218V105.862H12.4226V121.55H11.6226V105.062H40.1218V121.55Z" fill="#203156"/>
<path d="M32.0324 105.462H31.2324V85.9326H59.7332V102.52H58.9332V86.7326H32.0324V105.462Z" fill="#203156"/>
<path d="M50.4657 91.7888H40.2705V89.6416H50.4657V91.7888ZM41.0705 90.9888H49.6657V90.4416H41.0705V90.9888Z" fill="#203156"/>
<path d="M57.4755 108.247H47.2803V105.894H57.4755V108.247ZM48.0803 107.447H56.6755V106.694H48.0803V107.447Z" fill="#203156"/>
<path d="M30.9696 111.016H20.7744V108.725H30.9696V111.016ZM21.5744 110.216H30.1696V109.525H21.5744V110.216Z" fill="#203156"/>
<path d="M133.081 147.757L128.01 152.828L128.575 153.394L133.646 148.323L133.081 147.757Z" fill="#203156"/>
<path d="M209.01 58.1327C208.78 58.1327 208.591 57.9439 208.591 57.7135C208.591 57.4831 208.78 57.2959 209.01 57.2959C209.24 57.2959 209.428 57.4831 209.428 57.7135C209.428 57.9439 209.24 58.1327 209.01 58.1327ZM209.01 57.4559C208.868 57.4559 208.751 57.5711 208.751 57.7135C208.751 57.8559 208.868 57.9727 209.01 57.9727C209.152 57.9727 209.268 57.8559 209.268 57.7135C209.268 57.5711 209.152 57.4559 209.01 57.4559Z" fill="#203156"/>
<path d="M257.271 58.1327C257.04 58.1327 256.852 57.9439 256.852 57.7135C256.852 57.4831 257.04 57.2959 257.271 57.2959C257.501 57.2959 257.688 57.4831 257.688 57.7135C257.688 57.9439 257.501 58.1327 257.271 58.1327ZM257.271 57.4559C257.128 57.4559 257.012 57.5711 257.012 57.7135C257.012 57.8559 257.128 57.9727 257.271 57.9727C257.413 57.9727 257.528 57.8559 257.528 57.7135C257.528 57.5711 257.413 57.4559 257.271 57.4559Z" fill="#203156"/>
</svg>
